# Blender 4.4.0
# www.blender.org
mtllib box 013.mtl
o cardboard__016
v 17.139530 7.393766 32.139492
v 17.025305 7.667670 34.485931
v 17.068954 7.507619 34.550678
v 17.014359 1.852184 27.621569
v 15.578250 2.012759 30.003277
v 15.413637 1.909043 27.632294
v 14.683631 7.786556 32.123749
v 15.446981 7.868956 34.489834
v 15.494398 7.757738 32.118309
v 15.518689 5.900680 34.764851
v 13.860078 4.122000 34.675018
v 15.537271 4.062422 34.663788
v 12.125216 3.854954 27.570385
v 13.736444 1.968638 27.643545
v 12.060873 2.028166 27.654762
v 12.215555 7.568700 32.172482
v 12.269829 7.836625 34.517788
v 12.256517 7.727536 32.145794
v 13.772324 7.287108 27.262814
v 12.210537 7.510033 27.401920
v 13.786259 7.450522 27.314808
v 13.869841 7.760965 32.130829
v 14.649240 7.842841 34.497688
v 14.686621 7.731944 32.125355
v 13.795735 2.295229 34.759396
v 12.184523 4.181528 34.686253
v 12.120165 2.354756 34.770630
v 13.867830 5.959347 34.775917
v 12.228712 6.009026 34.602013
v 12.130148 2.135261 30.026384
v 15.477980 3.735831 27.547918
v 13.800787 3.795426 27.559151
v 15.405275 7.229084 27.251869
v 13.813016 5.620524 27.398577
v 13.850077 7.652112 29.758848
v 14.589948 7.516250 27.381821
v 13.788320 7.544746 27.387192
v 14.666857 7.623092 29.753376
v 12.236753 7.618666 29.773832
v 13.847611 7.871321 34.503059
v 17.087383 7.555896 32.113426
v 13.876006 2.182812 32.386791
v 13.856243 2.073942 30.014814
v 12.149912 2.244130 32.398346
v 15.598013 2.121629 32.375237
v 13.831293 7.631319 34.760273
v 15.445124 7.732350 34.681389
v 13.844604 7.789208 34.692116
v 15.472928 2.235634 34.748161
v 12.195469 7.458073 29.761906
v 12.166653 7.347734 27.351379
v 12.226973 5.789969 29.857836
v 12.169422 5.682451 27.486145
v 12.194489 3.962049 29.942009
v 12.246737 5.898822 32.229813
v 12.214254 4.070918 32.313972
v 15.467015 5.561757 27.387495
v 12.226906 7.679646 34.583126
v 17.137993 4.005547 34.653061
v 17.073650 2.178758 34.737434
v 17.125746 5.835054 34.569191
v 16.966015 7.341079 27.370064
v 15.470834 7.702855 29.743916
v 17.067619 7.447042 29.741467
v 15.385546 7.596267 27.371515
v 14.660962 7.731623 29.749355
v 17.202824 1.955040 29.992397
v 17.078701 3.678955 27.537193
v 17.222588 2.063909 32.364361
v 17.243382 5.721303 32.196335
v 17.286930 3.890697 32.279984
v 17.267149 3.781828 29.908005
v 17.223618 5.612451 29.824356
v 17.119446 7.283123 29.728899
v 17.008667 7.175723 27.318930
v 17.066456 5.508463 27.453323
v 15.389228 7.393562 27.304066
v 16.908428 8.319685 26.991985
v 12.242649 8.485447 27.023252
v 13.786918 8.426712 26.929214
v 16.973362 8.676580 34.768654
v 15.412995 8.741362 34.981155
v 13.853911 8.796750 34.991611
v 12.307447 8.842359 34.799919
v 15.348468 8.371240 26.918758
v 16.894661 8.853135 26.515917
v 16.967028 9.251096 35.187218
v 15.419312 9.298174 35.026222
v 15.351711 8.921970 26.829620
v 13.873946 9.353072 35.036575
v 12.330622 9.415826 35.218285
v 13.805651 8.976886 26.839973
v 15.461644 7.573396 34.749344
v 16.913074 8.386865 27.140078
v 15.386289 7.399188 27.476110
v 16.849121 7.202362 27.560266
v 13.787493 8.479906 27.083759
v 12.329018 7.356467 27.594002
v 13.791902 7.456165 27.486803
v 15.433332 7.721624 34.509411
v 16.964022 8.729655 34.615170
v 16.901978 7.514021 34.319088
v 13.853421 7.778516 34.519951
v 15.409599 8.781514 34.822807
v 12.318562 8.895517 34.646641
v 12.391012 7.671589 34.347332
v 15.353721 8.424381 27.073236
v 15.359937 8.973693 26.985432
v 16.966740 9.312599 35.037167
v 13.857965 8.836819 34.833229
v 15.418857 9.336366 34.866608
v 13.874993 9.391232 34.876945
v 13.803185 9.028811 26.995888
v 12.244743 8.552863 27.171244
v 14.647802 7.897351 34.495186
v 15.433890 7.707315 34.497131
v 14.642111 7.735458 34.502670
v 13.846530 7.709275 34.510559
v 14.643530 7.680947 34.505154
v 14.680912 7.570068 32.132820
v 14.587160 7.624646 27.376869
v 14.655235 7.569645 29.754980
v 14.677904 7.624578 32.129391
v 14.584239 7.354373 27.389286
v 14.661147 7.461198 29.760859
v 15.369769 7.434762 27.379370
v 14.581451 7.462752 27.384336
v 13.787239 7.382685 27.394588
v 16.908667 8.927933 26.659111
v 12.251568 9.093053 26.690496
v 12.333275 9.477262 35.068233
v 12.258375 9.017849 26.546997
vn 0.9833 0.1819 0.0049
vn 0.8093 0.3759 0.4514
vn 0.7136 0.2176 0.6659
vn 0.5289 -0.6272 -0.5717
vn -0.0352 -0.9983 0.0461
vn -0.0307 -0.7383 -0.6737
vn -0.6814 0.7314 -0.0275
vn 0.0995 0.7300 0.6762
vn 0.0841 0.9957 -0.0379
vn 0.0637 -0.0210 0.9977
vn 0.0065 -0.0045 1.0000
vn 0.0206 0.0097 0.9997
vn -0.7223 -0.0194 -0.6913
vn -0.6085 -0.5808 -0.5407
vn -0.9930 0.1181 -0.0007
vn -0.8134 0.3683 0.4503
vn -0.6209 0.7833 -0.0318
vn -0.0271 0.1133 -0.9932
vn -0.8058 0.3095 -0.5048
vn -0.0325 -0.0324 -0.9989
vn 0.0072 0.9989 -0.0461
vn 0.5946 0.5841 0.5525
vn 0.7341 0.6784 -0.0287
vn -0.0190 -0.6735 0.7390
vn -0.7165 0.0332 0.6968
vn -0.5990 -0.5283 0.6017
vn -0.0359 -0.0094 0.9993
vn -0.7461 0.0243 0.6654
vn -0.7291 -0.6829 0.0448
vn -0.0032 -0.0609 -0.9981
vn -0.0091 -0.0667 -0.9977
vn 0.0217 0.1139 -0.9933
vn -0.0269 -0.0790 -0.9965
vn 0.0072 0.9989 -0.0457
vn 0.5849 0.5307 -0.6134
vn -0.0426 0.6667 -0.7441
vn 0.7340 0.6776 -0.0458
vn -0.6209 0.7834 -0.0298
vn -0.0290 0.7327 0.6800
vn 0.6426 0.7656 -0.0305
vn -0.7293 -0.6836 0.0301
vn -0.0447 0.2070 0.9773
vn 0.0689 0.0635 0.9956
vn -0.0510 0.0629 0.9967
vn -0.0190 -0.6735 0.7389
vn -0.9929 0.1185 0.0064
vn -0.7057 0.1519 -0.6920
vn -0.9999 0.0010 0.0169
vn -0.7348 -0.0378 -0.6772
vn -0.9995 0.0273 0.0175
vn -1.0000 0.0002 -0.0003
vn -0.9996 0.0263 -0.0033
vn 0.0146 -0.0839 -0.9964
vn -0.7167 0.2136 0.6639
vn 0.6937 0.0257 0.7198
vn 0.5388 -0.5726 0.6179
vn 0.7314 0.0204 0.6816
vn 0.7857 0.3155 -0.5322
vn 0.0974 0.9946 -0.0362
vn 0.6525 0.7564 -0.0463
vn 0.1000 0.6662 -0.7390
vn -0.6765 0.7363 -0.0114
vn 0.6892 -0.7246 0.0021
vn 0.6817 -0.0409 -0.7305
vn 0.6896 -0.7222 0.0528
vn 0.9989 0.0419 0.0204
vn 0.9996 -0.0045 0.0274
vn 0.9990 -0.0077 -0.0434
vn 0.9984 0.0391 -0.0408
vn 0.9830 0.1799 -0.0379
vn 0.6792 0.1544 -0.7175
vn 0.7023 -0.0338 -0.7111
vn 0.0170 -0.0320 -0.9993
vn 0.7418 -0.3264 -0.5858
vn -0.7501 -0.2971 -0.5909
vn -0.0424 -0.2640 -0.9636
vn 0.7970 -0.2409 0.5539
vn 0.0128 -0.2176 0.9760
vn -0.0177 -0.2187 0.9756
vn -0.8094 -0.2326 0.5392
vn -0.0399 -0.3004 -0.9530
vn 0.5038 0.1635 -0.8482
vn 0.5689 0.2487 0.7839
vn -0.0247 0.5960 0.8026
vn -0.0718 0.5369 -0.8406
vn 0.0782 0.5928 0.8015
vn -0.5517 0.2808 0.7853
vn 0.0375 0.5021 -0.8640
vn 0.0717 0.2081 0.9755
vn 0.6898 0.3455 0.6362
vn -0.0027 0.3587 0.9335
vn 0.3265 -0.7410 0.5867
vn 0.0378 0.2596 0.9650
vn -0.3889 -0.7366 0.5534
vn 0.0314 0.3662 0.9300
vn -0.0558 0.2728 -0.9605
vn 0.6022 0.3458 -0.7195
vn 0.2535 -0.8377 -0.4837
vn 0.0598 0.2742 -0.9598
vn -0.0127 0.2167 -0.9762
vn -0.6248 0.3091 -0.7170
vn -0.3166 -0.8287 -0.4616
vn -0.0092 0.2633 0.9647
vn 0.0110 0.8526 0.5225
vn 0.5772 0.7807 -0.2396
vn 0.0629 0.1801 -0.9816
vn 0.0520 0.7929 -0.6071
vn 0.0694 0.8133 -0.5776
vn 0.0565 0.8509 0.5223
vn -0.6622 0.3534 0.6607
vn -0.5593 0.6221 0.5479
vn 0.0667 0.0397 0.9970
vn -0.7089 0.0574 0.7029
vn -0.0522 0.0465 0.9976
vn 0.7041 0.0079 0.7101
vn 0.9994 -0.0350 0.0053
vn -0.5685 0.5698 -0.5934
vn -0.9992 0.0360 0.0191
vn -0.9994 0.0352 -0.0040
vn 0.6921 -0.0576 -0.7195
vn 0.9992 -0.0361 -0.0187
vn 0.0520 -0.0534 -0.9972
vn -0.7203 -0.0066 -0.6936
vn -0.0716 -0.0450 -0.9964
vn 0.6364 0.7689 0.0619
vn -0.5946 0.8004 0.0766
vn -0.5676 0.8019 -0.1865
vn -0.4756 0.1520 -0.8664
vt 0.831954 0.486862
vt 0.808417 0.488880
vt 0.807834 0.487184
vt 0.879057 0.433269
vt 0.855728 0.418133
vt 0.879433 0.417159
vt 0.831938 0.512846
vt 0.808210 0.504844
vt 0.832007 0.504629
vt 0.945115 0.703566
vt 0.961286 0.685492
vt 0.944547 0.685246
vt 0.312428 0.629344
vt 0.328669 0.647656
vt 0.312129 0.647387
vt 0.831969 0.329611
vt 0.808218 0.327839
vt 0.832168 0.327947
vt 0.327856 0.594523
vt 0.312014 0.593119
vt 0.327909 0.592789
vt 0.832245 0.311706
vt 0.808410 0.303850
vt 0.832291 0.303482
vt 0.961555 0.667279
vt 0.977980 0.685722
vt 0.978225 0.667502
vt 0.961624 0.703827
vt 0.978018 0.703949
vt 0.879739 0.400289
vt 0.856027 0.383504
vt 0.880016 0.383435
vt 0.345592 0.629873
vt 0.328976 0.629566
vt 0.344457 0.594776
vt 0.328730 0.611362
vt 0.856119 0.311767
vt 0.880016 0.304042
vt 0.880031 0.312136
vt 0.856111 0.303559
vt 0.856111 0.328016
vt 0.808348 0.311928
vt 0.832145 0.488565
vt 0.832046 0.400887
vt 0.855889 0.400941
vt 0.808164 0.400197
vt 0.831961 0.383488
vt 0.832176 0.418087
vt 0.962460 0.720504
vt 0.946043 0.721939
vt 0.962391 0.722223
vt 0.944862 0.667026
vt 0.856303 0.329680
vt 0.880054 0.328054
vt 0.880645 0.329726
vt 0.879993 0.365008
vt 0.856073 0.346535
vt 0.880023 0.346558
vt 0.856042 0.365008
vt 0.832107 0.346466
vt 0.807942 0.383312
vt 0.832046 0.364954
vt 0.808049 0.364831
vt 0.345232 0.611653
vt 0.978095 0.722284
vt 0.978409 0.720566
vt 0.928583 0.684962
vt 0.928897 0.666704
vt 0.929035 0.703197
vt 0.929918 0.719799
vt 0.808739 0.433292
vt 0.808417 0.417105
vt 0.879387 0.488918
vt 0.855858 0.504614
vt 0.855697 0.488565
vt 0.879425 0.504921
vt 0.855942 0.512731
vt 0.855474 0.434113
vt 0.345216 0.647955
vt 0.361442 0.630257
vt 0.361020 0.648323
vt 0.832391 0.434097
vt 0.808402 0.451819
vt 0.832115 0.470230
vt 0.832191 0.452072
vt 0.855643 0.452049
vt 0.879494 0.451819
vt 0.855712 0.470238
vt 0.855889 0.486862
vt 0.879977 0.487230
vt 0.361150 0.612144
vt 0.360207 0.593840
vt 0.360575 0.595597
vt 0.344304 0.593027
vt 0.359831 0.583591
vt 0.311830 0.582916
vt 0.327495 0.581934
vt 0.931329 0.731574
vt 0.946273 0.732472
vt 0.962752 0.732848
vt 0.977696 0.732326
vt 0.343974 0.582041
vt 0.360076 0.576618
vt 0.931858 0.738210
vt 0.946128 0.737926
vt 0.343981 0.576127
vt 0.962790 0.738356
vt 0.977320 0.738993
vt 0.327372 0.576073
vt 0.879532 0.470345
vt 0.930301 0.721525
vt 0.945905 0.720198
vt 0.312398 0.611308
vt 0.808141 0.346358
vt 0.808310 0.470307
vt 0.359010 0.568079
vt 0.344641 0.557293
vt 0.359647 0.555935
vt 0.327764 0.568447
vt 0.313533 0.555229
vt 0.328293 0.557216
vt 0.944248 0.757995
vt 0.930754 0.745145
vt 0.927263 0.757458
vt 0.962276 0.758540
vt 0.945851 0.745820
vt 0.977389 0.746227
vt 0.979084 0.759192
vt 0.343912 0.568609
vt 0.343905 0.574454
vt 0.932656 0.739576
vt 0.962406 0.746120
vt 0.946235 0.739699
vt 0.962598 0.740159
vt 0.327480 0.574339
vt 0.312712 0.567665
vt 0.807957 0.512830
vt 0.806584 0.504852
vt 0.807957 0.514457
vt 0.806714 0.311875
vt 0.806776 0.303835
vt 0.832283 0.301856
vt 0.806008 0.489885
vt 0.879701 0.512861
vt 0.855942 0.514357
vt 0.831938 0.514487
vt 0.805824 0.326619
vt 0.880046 0.302408
vt 0.856134 0.301925
vt 0.881051 0.504936
vt 0.881320 0.512807
vt 0.881872 0.489854
vt 0.881665 0.312082
vt 0.882563 0.326903
vt 0.361273 0.558060
vt 0.311654 0.557362
vt 0.311140 0.567650
vt 0.926051 0.754896
vt 0.929242 0.744424
vt 0.980626 0.756668
vt 0.359953 0.575030
vt 0.311216 0.574569
vt 0.976376 0.740351
vt 0.360559 0.568225
vt 0.979046 0.745728
vt 0.309598 0.574623
vt 0.807627 0.329512
vt 0.311700 0.594853
vt 0.311055 0.576157
vt 0.806331 0.512777
vt 0.808387 0.302216
vt 0.879693 0.514487
vt 0.881650 0.304042
vt 0.361541 0.575206
s 1
usemtl MAT_Cardboard.001
f 1/1/1 2/2/2 3/3/3
f 4/4/4 5/5/5 6/6/6
f 7/7/7 8/8/8 9/9/9
f 10/10/10 11/11/11 12/12/12
f 13/13/13 14/14/6 15/15/14
f 16/16/15 17/17/16 18/18/17
f 19/19/18 20/20/19 21/21/20
f 22/22/21 23/23/22 24/24/23
f 25/25/24 26/26/25 27/27/26
f 26/26/25 28/28/27 29/29/28
f 14/30/6 30/31/29 15/32/14
f 31/33/30 14/14/6 32/34/31
f 33/35/32 34/36/33 19/19/18
f 35/37/34 36/38/35 37/39/36
f 22/22/21 38/40/37 35/37/34
f 18/18/17 35/37/34 39/41/38
f 40/42/39 18/18/17 17/17/16
f 9/9/9 2/2/2 41/43/40
f 42/44/5 30/31/29 43/45/5
f 25/46/24 44/47/41 42/44/5
f 43/45/5 45/48/5 42/44/5
f 46/49/42 47/50/43 48/51/44
f 12/12/12 25/25/24 49/52/45
f 50/53/46 20/54/19 51/55/47
f 16/16/15 39/41/38 50/53/46
f 30/31/29 13/56/13 15/32/14
f 13/56/13 52/57/48 53/58/49
f 44/47/41 54/59/50 30/31/29
f 54/59/50 55/60/51 52/57/48
f 27/61/26 56/62/52 44/47/41
f 26/63/25 55/60/51 56/62/52
f 57/64/53 32/34/31 34/36/33
f 6/6/6 43/45/5 14/30/6
f 46/49/42 17/65/16 58/66/54
f 13/13/13 34/36/33 32/34/31
f 59/67/55 49/52/45 60/68/56
f 61/69/57 12/12/12 59/67/55
f 3/70/3 10/10/10 61/69/57
f 45/48/5 60/71/56 49/72/45
f 62/73/58 63/74/59 64/75/60
f 64/75/60 9/9/9 41/43/40
f 65/76/61 66/77/62 63/74/59
f 63/74/59 7/7/7 9/9/9
f 67/78/63 45/48/5 5/5/5
f 6/79/6 68/80/64 4/81/4
f 69/82/65 59/83/55 60/71/56
f 70/84/66 59/83/55 71/85/67
f 4/4/4 72/86/68 67/78/63
f 67/78/63 71/85/67 69/82/65
f 68/87/64 73/88/69 72/86/68
f 73/88/69 71/85/67 72/86/68
f 62/73/58 74/89/70 75/90/71
f 64/75/60 1/1/1 74/89/70
f 31/33/30 76/91/72 68/80/64
f 33/35/32 62/92/58 75/93/71
f 42/44/5 49/72/45 25/46/24
f 77/94/73 78/95/74 62/92/58
f 21/21/20 79/96/75 80/97/76
f 47/50/43 81/98/77 82/99/78
f 48/51/44 82/99/78 83/100/79
f 48/51/44 84/101/80 17/65/16
f 21/21/20 85/102/81 77/94/73
f 85/102/81 86/103/82 78/95/74
f 82/99/78 87/104/83 88/105/84
f 80/97/76 89/106/85 85/102/81
f 83/100/79 88/105/84 90/107/86
f 83/100/79 91/108/87 84/101/80
f 79/96/75 92/109/88 80/97/76
f 39/41/38 37/39/36 20/54/19
f 57/64/53 75/93/71 76/91/72
f 73/88/69 1/1/1 70/84/66
f 76/110/72 74/89/70 73/88/69
f 2/111/2 93/112/89 3/70/3
f 29/29/28 46/49/42 58/66/54
f 52/57/48 16/16/15 50/53/46
f 53/58/49 50/53/46 51/55/47
f 28/28/27 93/112/89 46/49/42
f 77/94/73 19/19/18 21/21/20
f 53/113/49 19/19/18 34/36/33
f 29/114/28 16/16/15 55/60/51
f 1/1/1 61/115/57 70/84/66
f 94/116/90 95/117/91 96/118/92
f 97/119/93 98/120/94 99/121/95
f 100/122/96 101/123/97 102/124/98
f 103/125/99 104/126/100 100/122/96
f 105/127/101 103/125/99 106/128/102
f 107/129/103 99/121/95 95/117/91
f 94/116/90 108/130/104 107/129/103
f 104/126/100 109/131/105 101/123/97
f 108/130/104 97/119/93 107/129/103
f 110/132/106 111/133/107 104/126/100
f 105/127/101 112/134/108 110/132/106
f 113/135/109 114/136/110 97/119/93
f 115/137/111 116/138/112 8/8/8
f 7/7/7 117/139/113 115/137/111
f 23/23/22 118/140/114 119/141/115
f 23/23/22 120/142/116 24/24/23
f 8/8/8 102/143/98 2/2/2
f 121/144/117 122/145/118 66/77/62
f 7/7/7 122/145/118 123/146/119
f 40/42/39 106/147/102 118/140/114
f 38/40/37 124/148/120 36/38/35
f 24/24/23 125/149/121 38/40/37
f 121/144/117 126/150/122 127/151/123
f 65/76/61 96/152/92 126/150/122
f 36/38/35 128/153/124 37/39/36
f 37/39/36 98/154/94 20/54/19
f 62/155/58 94/116/90 96/118/92
f 20/156/19 114/136/110 79/157/75
f 2/158/2 101/123/97 81/159/77
f 17/160/16 105/127/101 106/128/102
f 88/105/84 112/134/108 90/107/86
f 89/106/85 129/161/125 86/103/82
f 92/109/88 108/130/104 89/106/85
f 92/109/88 130/162/126 113/135/109
f 88/105/84 109/131/105 111/133/107
f 90/107/86 131/163/127 91/108/87
f 78/164/74 129/161/125 94/116/90
f 81/159/77 109/131/105 87/104/83
f 84/165/80 131/163/127 105/127/101
f 79/157/75 130/162/126 132/166/128
f 1/1/1 41/43/40 2/2/2
f 4/4/4 67/78/63 5/5/5
f 7/7/7 115/137/111 8/8/8
f 10/10/10 28/28/27 11/11/11
f 13/13/13 32/34/31 14/14/6
f 16/16/15 58/167/54 17/17/16
f 19/19/18 51/168/47 20/20/19
f 22/22/21 40/42/39 23/23/22
f 25/25/24 11/11/11 26/26/25
f 26/26/25 11/11/11 28/28/27
f 14/30/6 43/45/5 30/31/29
f 31/33/30 6/79/6 14/14/6
f 33/35/32 57/64/53 34/36/33
f 35/37/34 38/40/37 36/38/35
f 22/22/21 24/24/23 38/40/37
f 18/18/17 22/22/21 35/37/34
f 40/42/39 22/22/21 18/18/17
f 9/9/9 8/8/8 2/2/2
f 42/44/5 44/47/41 30/31/29
f 25/46/24 27/61/26 44/47/41
f 43/45/5 5/5/5 45/48/5
f 46/49/42 93/112/89 47/50/43
f 12/12/12 11/11/11 25/25/24
f 50/53/46 39/41/38 20/54/19
f 16/16/15 18/18/17 39/41/38
f 30/31/29 54/59/50 13/56/13
f 13/56/13 54/59/50 52/57/48
f 44/47/41 56/62/52 54/59/50
f 54/59/50 56/62/52 55/60/51
f 27/61/26 26/63/25 56/62/52
f 26/63/25 29/114/28 55/60/51
f 57/64/53 31/33/30 32/34/31
f 6/6/6 5/5/5 43/45/5
f 46/49/42 48/51/44 17/65/16
f 13/13/13 53/113/49 34/36/33
f 59/67/55 12/12/12 49/52/45
f 61/69/57 10/10/10 12/12/12
f 3/70/3 93/112/89 10/10/10
f 45/48/5 69/82/65 60/71/56
f 62/73/58 65/76/61 63/74/59
f 64/75/60 63/74/59 9/9/9
f 65/76/61 121/144/117 66/77/62
f 63/74/59 66/77/62 7/7/7
f 67/78/63 69/82/65 45/48/5
f 6/79/6 31/33/30 68/80/64
f 69/82/65 71/85/67 59/83/55
f 70/84/66 61/115/57 59/83/55
f 4/4/4 68/87/64 72/86/68
f 67/78/63 72/86/68 71/85/67
f 68/87/64 76/110/72 73/88/69
f 73/88/69 70/84/66 71/85/67
f 62/73/58 64/75/60 74/89/70
f 64/75/60 41/43/40 1/1/1
f 31/33/30 57/64/53 76/91/72
f 33/35/32 77/94/73 62/92/58
f 42/44/5 45/48/5 49/72/45
f 77/94/73 85/102/81 78/95/74
f 21/21/20 20/20/19 79/96/75
f 47/50/43 2/111/2 81/98/77
f 48/51/44 47/50/43 82/99/78
f 48/51/44 83/100/79 84/101/80
f 21/21/20 80/97/76 85/102/81
f 85/102/81 89/106/85 86/103/82
f 82/99/78 81/98/77 87/104/83
f 80/97/76 92/109/88 89/106/85
f 83/100/79 82/99/78 88/105/84
f 83/100/79 90/107/86 91/108/87
f 79/96/75 132/169/128 92/109/88
f 39/41/38 35/37/34 37/39/36
f 57/64/53 33/35/32 75/93/71
f 73/88/69 74/89/70 1/1/1
f 76/110/72 75/90/71 74/89/70
f 2/111/2 47/50/43 93/112/89
f 29/29/28 28/28/27 46/49/42
f 52/57/48 55/60/51 16/16/15
f 53/58/49 52/57/48 50/53/46
f 28/28/27 10/10/10 93/112/89
f 77/94/73 33/35/32 19/19/18
f 53/113/49 51/168/47 19/19/18
f 29/114/28 58/167/54 16/16/15
f 1/1/1 3/3/3 61/115/57
f 94/116/90 107/129/103 95/117/91
f 97/119/93 114/136/110 98/120/94
f 100/122/96 104/126/100 101/123/97
f 103/125/99 110/132/106 104/126/100
f 105/127/101 110/132/106 103/125/99
f 107/129/103 97/119/93 99/121/95
f 94/116/90 129/161/125 108/130/104
f 104/126/100 111/133/107 109/131/105
f 108/130/104 113/135/109 97/119/93
f 110/132/106 112/134/108 111/133/107
f 105/127/101 131/163/127 112/134/108
f 113/135/109 130/162/126 114/136/110
f 115/137/111 117/170/113 116/138/112
f 7/7/7 123/146/119 117/139/113
f 23/23/22 40/42/39 118/140/114
f 23/23/22 119/171/115 120/142/116
f 8/8/8 116/138/112 102/143/98
f 121/144/117 127/172/123 122/145/118
f 7/7/7 66/77/62 122/145/118
f 40/42/39 17/17/16 106/147/102
f 38/40/37 125/149/121 124/148/120
f 24/24/23 120/142/116 125/149/121
f 121/144/117 65/76/61 126/150/122
f 65/76/61 62/73/58 96/152/92
f 36/38/35 124/173/120 128/153/124
f 37/39/36 128/153/124 98/154/94
f 62/155/58 78/164/74 94/116/90
f 20/156/19 98/120/94 114/136/110
f 2/158/2 102/124/98 101/123/97
f 17/160/16 84/165/80 105/127/101
f 88/105/84 111/133/107 112/134/108
f 89/106/85 108/130/104 129/161/125
f 92/109/88 113/135/109 108/130/104
f 92/109/88 132/169/128 130/162/126
f 88/105/84 87/104/83 109/131/105
f 90/107/86 112/134/108 131/163/127
f 78/164/74 86/174/82 129/161/125
f 81/159/77 101/123/97 109/131/105
f 84/165/80 91/108/87 131/163/127
f 79/157/75 114/136/110 130/162/126
