# Blender 4.4.0
# www.blender.org
mtllib box 001.mtl
o cardboard__004
v 13.189337 1.811490 -24.901102
v 13.117283 2.046670 -21.772873
v 13.189337 1.848260 -21.697147
v 13.117283 -3.457330 -28.466967
v 11.110460 -3.457330 -31.989262
v 13.117283 -3.457330 -31.989262
v 10.032754 1.760007 -24.918526
v 11.036154 1.275194 -21.988705
v 11.036154 1.638525 -24.918526
v 6.963201 1.812364 -24.901102
v 7.096837 2.007823 -21.422375
v 7.093251 2.131404 -24.931269
v 7.096837 2.007823 -31.989262
v 9.079809 1.811489 -32.114021
v 7.025067 1.811489 -32.114021
v 9.091417 2.429152 -24.944670
v 10.087756 2.164283 -21.586069
v 9.914180 2.568100 -24.982819
v 11.110460 2.007823 -31.989262
v 11.134573 1.811489 -32.114021
v 7.096837 -0.593925 -21.422375
v 9.103660 -3.457351 -21.422375
v 9.103660 -0.593925 -21.466009
v 9.091417 -3.500396 -28.466967
v 7.096837 -3.457330 -31.989262
v 9.103660 -3.457330 -31.989262
v 11.110460 -0.593926 -31.989262
v 9.103660 -0.593926 -31.989262
v 7.042971 -3.457461 -28.466967
v 7.096837 -0.593926 -31.989262
v 9.160433 1.669807 -28.494577
v 10.176075 1.248479 -31.667686
v 9.172674 1.248479 -31.667686
v 10.176075 1.760116 -28.494577
v 7.042971 2.008763 -28.466967
v 9.108163 2.084053 -21.474010
v 13.117283 2.007823 -24.944670
v 7.042971 -3.457461 -24.944693
v 9.091417 -3.500396 -24.944693
v 7.096837 -3.457330 -21.422375
v 11.110460 -3.498953 -28.466967
v 11.134573 1.836870 -21.598705
v 11.110460 -0.593925 -22.152031
v 11.080816 2.143995 -25.648443
v 11.110460 2.034647 -21.684029
v 6.963201 1.812363 -28.507561
v 6.956205 -0.593926 -28.466967
v 9.082782 1.771746 -21.273830
v 7.025067 1.811490 -21.294640
v 13.117283 -3.462773 -21.772873
v 13.117283 -0.593925 -22.337521
v 7.300735 2.054168 -27.916767
v 9.103660 2.007823 -31.989262
v 9.106785 1.965850 -25.606600
v 9.106785 1.965850 -21.396820
v 13.117283 -3.457330 -24.944693
v 7.218385 1.907656 -25.629446
v 13.117283 2.007823 -31.989262
v 11.089364 2.082304 -31.902889
v 13.117283 2.007823 -28.466967
v 11.110460 2.397977 -28.466967
v 10.085963 2.082304 -31.902889
v 11.110460 -3.498953 -24.944693
v 11.110460 1.915591 -27.907717
v 13.117283 1.708327 -27.907717
v 13.117283 -0.593926 -31.989262
v 13.117283 -0.593926 -28.466967
v 13.189337 1.811489 -32.114021
v 13.189337 1.811489 -28.507561
v 11.110460 -3.461112 -21.684052
v 13.117283 -0.593925 -24.944670
v 6.956205 -0.593925 -24.944670
v 9.117083 2.148062 -27.961060
v 11.079548 2.037992 -25.651154
v 9.114721 1.860654 -25.609509
v 13.106504 1.902452 -31.962395
v 11.088053 1.976583 -31.876438
v 7.235107 1.802744 -25.632244
v 9.118940 2.041817 -27.964008
v 11.103027 1.810418 -27.910908
v 10.173014 1.655685 -28.495037
v 10.173014 1.146431 -31.653345
v 7.311075 1.948361 -27.919914
v 9.912343 2.459910 -24.999651
v 13.100493 1.604137 -27.910908
v 9.174293 1.146431 -31.653345
v 7.108139 1.902234 -31.973413
v 13.008917 1.953870 -25.689430
v 13.106504 1.941126 -21.793661
v 10.107059 2.519459 -28.466967
v 10.089331 1.976583 -31.876438
v 10.110317 2.411684 -28.456516
v 13.019236 2.059481 -25.686895
v 10.036361 1.155549 -21.842936
v 11.035083 1.173234 -22.008469
v 10.036361 1.655795 -24.924644
v 10.032754 1.257421 -21.822388
v 7.112905 1.902081 -21.431335
v 9.124230 1.978290 -21.482971
v 10.103825 2.058541 -21.595032
vn 0.9872 0.1593 -0.0012
vn 0.4875 0.7137 0.5030
vn 0.6920 0.1216 0.7116
vn 0.7132 -0.7009 -0.0028
vn 0.0024 -0.7043 -0.7099
vn 0.5773 -0.5773 -0.5774
vn -0.6902 0.7143 0.1154
vn -0.0462 0.5687 0.8212
vn -0.0252 0.9859 0.1652
vn -0.9816 0.1903 0.0119
vn -0.3329 0.7931 0.5100
vn -0.6035 0.7971 0.0172
vn -0.4812 0.7489 -0.4557
vn -0.0000 0.2543 -0.9671
vn -0.6633 0.2454 -0.7070
vn -0.1280 0.9916 -0.0192
vn 0.5548 0.5917 0.5849
vn 0.5973 0.8011 -0.0377
vn 0.0097 0.8769 -0.4805
vn -0.6967 -0.0321 0.7167
vn 0.0496 -0.6845 0.7273
vn 0.1373 -0.0309 0.9901
vn -0.0084 -1.0000 -0.0041
vn -0.5737 -0.5752 -0.5832
vn 0.0001 -0.7028 -0.7114
vn -0.0000 -0.0259 -0.9997
vn -0.7077 -0.7064 -0.0103
vn -0.7001 -0.0293 -0.7134
vn 0.0341 0.9832 -0.1792
vn 0.5856 0.4850 -0.6495
vn 0.1435 0.5762 -0.8046
vn 0.7057 0.7004 -0.1066
vn -0.5054 0.8595 -0.0763
vn 0.0016 0.6365 0.7713
vn 0.5120 0.8564 0.0660
vn -0.7077 -0.7064 0.0103
vn -0.0085 -1.0000 0.0040
vn -0.5737 -0.5752 0.5831
vn 0.0107 -0.9999 -0.0060
vn 0.1180 0.1159 0.9862
vn 0.2021 -0.0257 0.9790
vn -0.0358 0.7358 -0.6763
vn 0.0282 0.8425 0.5380
vn -0.9817 0.1902 -0.0121
vn -0.9997 -0.0139 -0.0198
vn 0.0708 0.2324 0.9700
vn -0.6637 0.2502 0.7049
vn 0.5844 -0.5285 0.6157
vn 0.7836 -0.0261 0.6207
vn -0.5935 0.5386 0.5980
vn -0.0040 0.8701 -0.4929
vn -0.0405 0.7163 -0.6966
vn 0.0315 0.8631 0.5041
vn 0.7146 -0.6995 -0.0006
vn -0.0043 0.7459 -0.6661
vn 0.3506 0.7796 -0.5189
vn 0.0158 0.6014 -0.7988
vn 0.6385 0.7694 -0.0175
vn 0.1198 0.9926 0.0178
vn -0.5798 0.4666 -0.6679
vn 0.0088 -1.0000 0.0037
vn 0.0536 0.6748 0.7360
vn 0.0700 0.6774 0.7323
vn 0.7094 -0.0292 -0.7042
vn 0.9999 -0.0150 -0.0000
vn 0.6688 0.2451 -0.7019
vn 0.9871 0.1602 -0.0000
vn 0.0936 -0.6712 0.7353
vn -0.9997 -0.0139 0.0198
vn 0.0104 0.7266 0.6870
vn -0.0212 0.0258 -0.9994
vn -0.0063 0.0272 -0.9996
vn -0.0502 -0.2419 -0.9690
vn -0.0251 -0.2424 -0.9699
vn 0.0112 0.0285 -0.9995
vn -0.0030 -0.0278 0.9996
vn -0.0162 -0.0292 0.9994
vn 0.9988 -0.0294 0.0381
vn 0.6957 -0.1204 -0.7082
vn -0.6728 -0.0876 0.7346
vn 0.9996 -0.0190 0.0226
vn -0.0031 -0.0301 0.9995
vn 0.0440 -0.1383 -0.9894
vn -0.6028 -0.1807 -0.7772
vn 0.6715 -0.0479 -0.7394
vn 0.6396 -0.2109 0.7392
vn -0.6333 0.7734 0.0292
vn -0.7263 -0.1885 -0.6611
vn -0.9995 -0.0312 -0.0106
vn 0.6065 0.5445 -0.5794
vn -0.6425 -0.1733 0.7464
vn 0.0798 -0.1905 0.9784
vn -0.9993 -0.0337 -0.0158
vn -0.5384 0.4438 0.7164
vn 0.0286 -0.0801 0.9964
vn 0.0765 -0.0726 0.9944
vn 0.7634 0.0615 0.6430
vt 0.185834 0.871657
vt 0.210368 0.872677
vt 0.210890 0.871013
vt 0.157665 0.830768
vt 0.130316 0.815486
vt 0.130454 0.830998
vt 0.185297 0.897909
vt 0.210997 0.891634
vt 0.185888 0.890084
vt 0.184354 0.743374
vt 0.210828 0.741095
vt 0.184116 0.740750
vt 0.933213 0.900218
vt 0.948548 0.902159
vt 0.932637 0.902014
vt 0.184047 0.725691
vt 0.209493 0.718173
vt 0.183878 0.719454
vt 0.964352 0.900433
vt 0.964528 0.902244
vt 0.932814 0.022362
vt 0.949201 0.000629
vt 0.948487 0.022899
vt 0.157388 0.799683
vt 0.130101 0.784447
vt 0.130193 0.799967
vt 0.964229 0.920955
vt 0.948625 0.920855
vt 0.157266 0.783910
vt 0.129717 0.762269
vt 0.156184 0.724747
vt 0.131037 0.715403
vt 0.129771 0.723436
vt 0.156552 0.716554
vt 0.156782 0.741456
vt 0.210284 0.725668
vt 0.185512 0.873306
vt 0.184323 0.783642
vt 0.184538 0.799407
vt 0.211450 0.783534
vt 0.157526 0.815264
vt 0.963424 0.042769
vt 0.964827 0.023436
vt 0.978943 0.045201
vt 0.963431 0.074997
vt 0.963201 0.044449
vt 0.156475 0.743105
vt 0.129387 0.741993
vt 0.128459 0.743642
vt 0.156989 0.761831
vt 0.211273 0.761333
vt 0.947421 0.041104
vt 0.932170 0.042976
vt 0.931648 0.041142
vt 0.932875 0.942995
vt 0.948471 0.943110
vt 0.980508 0.001312
vt 0.980293 0.024058
vt 0.935215 0.868757
vt 0.948748 0.900357
vt 0.948057 0.075488
vt 0.947597 0.042853
vt 0.184937 0.830499
vt 0.205420 0.852355
vt 0.209478 0.830131
vt 0.979687 0.943317
vt 0.964083 0.943217
vt 0.933336 0.075626
vt 0.979940 0.900502
vt 0.131712 0.888941
vt 0.157910 0.873069
vt 0.130860 0.873314
vt 0.157879 0.888389
vt 0.131873 0.896636
vt 0.184737 0.814980
vt 0.964490 0.868911
vt 0.980032 0.868742
vt 0.130645 0.853123
vt 0.157833 0.852900
vt 0.979833 0.921047
vt 0.980492 0.902313
vt 0.157596 0.871450
vt 0.129878 0.871711
vt 0.209938 0.814604
vt 0.211718 0.799054
vt 0.185228 0.852739
vt 0.979541 0.043574
vt 0.184108 0.761686
vt 0.933036 0.920740
vt 0.964820 0.001105
vt 0.949162 0.869563
vt 0.963401 0.075810
vt 0.948080 0.076309
vt 0.130024 0.873421
vt 0.130876 0.888972
vt 0.933451 0.076431
vt 0.949208 0.868750
vt 0.964497 0.868098
vt 0.156452 0.715749
vt 0.131060 0.714583
vt 0.935307 0.867929
vt 0.183732 0.718648
vt 0.979971 0.867929
vt 0.130277 0.715304
vt 0.128973 0.723190
vt 0.932400 0.900050
vt 0.934394 0.868734
vt 0.978168 0.076431
vt 0.128651 0.741602
vt 0.211127 0.873030
vt 0.157711 0.895914
vt 0.131996 0.897487
vt 0.157803 0.896712
vt 0.978245 0.075603
vt 0.979764 0.045385
vt 0.979073 0.075641
vt 0.211212 0.900095
vt 0.211841 0.891825
vt 0.185343 0.898722
vt 0.210429 0.900080
vt 0.210322 0.900909
vt 0.131037 0.896628
vt 0.211649 0.740973
vt 0.211089 0.725530
vt 0.210299 0.718019
vt 0.211841 0.742676
vt 0.933589 0.000084
vt 0.209486 0.717367
s 1
usemtl MAT_Cardboard.001
f 1/1/1 2/2/2 3/3/3
f 4/4/4 5/5/5 6/6/6
f 7/7/7 8/8/8 9/9/9
f 10/10/10 11/11/11 12/12/12
f 13/13/13 14/14/14 15/15/15
f 16/16/16 17/17/17 18/18/18
f 14/14/14 19/19/19 20/20/14
f 21/21/20 22/22/21 23/23/22
f 24/24/23 25/25/24 26/26/25
f 14/14/14 27/27/26 28/28/26
f 29/29/27 30/30/28 25/25/24
f 31/31/29 32/32/30 33/33/31
f 31/31/29 18/18/18 34/34/32
f 16/16/16 35/35/33 12/12/12
f 36/36/34 12/12/12 11/11/11
f 37/37/35 8/8/8 2/2/2
f 24/24/23 38/38/36 29/29/27
f 39/39/37 40/40/38 38/38/36
f 41/41/39 39/39/37 24/24/23
f 42/42/40 23/23/22 43/43/41
f 2/44/2 44/45/42 45/46/43
f 46/47/44 13/48/13 15/49/15
f 10/10/10 35/35/33 46/47/44
f 38/38/36 47/50/45 29/29/27
f 21/51/20 38/38/36 40/40/38
f 48/52/46 11/53/11 49/54/47
f 25/55/24 28/28/26 26/56/25
f 43/43/41 50/57/48 51/58/49
f 52/59/50 53/60/51 13/13/13
f 45/46/43 54/61/52 55/62/53
f 51/58/49 42/42/40 43/43/41
f 41/41/39 26/26/25 5/5/5
f 56/63/54 51/64/49 50/65/48
f 27/27/26 6/66/6 5/67/5
f 55/62/53 57/68/55 11/53/11
f 58/69/56 20/20/14 19/19/19
f 59/70/57 60/71/58 58/72/56
f 61/73/59 37/37/35 60/71/58
f 62/74/60 61/73/59 59/70/57
f 61/73/59 7/7/7 9/9/9
f 41/41/39 56/63/54 63/75/61
f 58/69/56 64/76/62 65/77/63
f 66/78/64 4/4/4 6/6/6
f 67/79/65 56/63/54 4/4/4
f 66/80/64 20/20/14 68/81/66
f 58/72/56 69/82/67 68/83/66
f 69/82/67 37/37/35 1/1/1
f 39/39/37 70/84/68 22/85/21
f 21/21/20 48/52/46 49/54/47
f 35/35/33 33/33/31 13/48/13
f 42/42/40 55/62/53 48/52/46
f 27/27/26 26/56/25 28/28/26
f 69/82/67 71/86/65 67/79/65
f 66/78/64 69/82/67 67/79/65
f 63/75/61 50/65/48 70/84/68
f 2/44/2 42/42/40 3/87/3
f 72/88/69 46/47/44 47/50/45
f 30/30/28 46/47/44 15/49/15
f 30/89/28 14/14/14 28/28/26
f 70/90/68 23/23/22 22/22/21
f 21/51/20 10/10/10 72/88/69
f 1/1/1 51/64/49 71/86/65
f 19/19/19 73/91/70 64/76/62
f 54/61/52 74/92/71 75/93/72
f 59/70/57 76/94/73 77/95/74
f 54/61/52 78/96/75 57/68/55
f 64/76/62 79/97/76 80/98/77
f 32/32/30 81/99/78 82/100/79
f 73/91/70 83/101/80 79/97/76
f 34/34/32 84/102/81 81/99/78
f 64/76/62 85/103/82 65/77/63
f 33/33/31 82/104/79 86/105/83
f 52/59/50 87/106/84 83/107/80
f 44/45/42 88/108/85 74/92/71
f 33/33/31 87/109/84 13/48/13
f 8/8/8 89/110/86 2/2/2
f 90/111/87 91/112/88 92/113/89
f 93/114/90 89/115/86 88/116/85
f 8/8/8 94/117/91 95/118/92
f 17/17/17 84/102/81 18/18/18
f 7/7/7 92/113/89 96/119/93
f 97/120/94 96/119/93 94/121/91
f 59/70/57 91/122/88 62/74/60
f 36/36/34 98/123/95 99/124/96
f 17/17/17 99/124/96 100/125/97
f 1/1/1 37/37/35 2/2/2
f 4/4/4 41/41/39 5/5/5
f 7/7/7 97/120/94 8/8/8
f 10/10/10 49/126/47 11/11/11
f 13/13/13 53/60/51 14/14/14
f 16/16/16 36/36/34 17/17/17
f 14/14/14 53/60/51 19/19/19
f 21/21/20 40/127/38 22/22/21
f 24/24/23 29/29/27 25/25/24
f 14/14/14 20/20/14 27/27/26
f 29/29/27 47/50/45 30/30/28
f 31/31/29 34/34/32 32/32/30
f 31/31/29 16/16/16 18/18/18
f 16/16/16 31/31/29 35/35/33
f 36/36/34 16/16/16 12/12/12
f 37/37/35 9/9/9 8/8/8
f 24/24/23 39/39/37 38/38/36
f 39/39/37 22/85/21 40/40/38
f 41/41/39 63/75/61 39/39/37
f 42/42/40 48/52/46 23/23/22
f 2/44/2 93/114/90 44/45/42
f 46/47/44 35/35/33 13/48/13
f 10/10/10 12/12/12 35/35/33
f 38/38/36 72/88/69 47/50/45
f 21/51/20 72/88/69 38/38/36
f 48/52/46 55/62/53 11/53/11
f 25/55/24 30/89/28 28/28/26
f 43/43/41 70/90/68 50/57/48
f 52/59/50 73/91/70 53/60/51
f 45/46/43 44/45/42 54/61/52
f 51/58/49 3/87/3 42/42/40
f 41/41/39 24/24/23 26/26/25
f 56/63/54 71/86/65 51/64/49
f 27/27/26 66/80/64 6/66/6
f 55/62/53 54/61/52 57/68/55
f 58/69/56 68/81/66 20/20/14
f 59/70/57 61/73/59 60/71/58
f 61/73/59 9/9/9 37/37/35
f 62/74/60 90/111/87 61/73/59
f 61/73/59 90/111/87 7/7/7
f 41/41/39 4/4/4 56/63/54
f 58/69/56 19/19/19 64/76/62
f 66/78/64 67/79/65 4/4/4
f 67/79/65 71/86/65 56/63/54
f 66/80/64 27/27/26 20/20/14
f 58/72/56 60/71/58 69/82/67
f 69/82/67 60/71/58 37/37/35
f 39/39/37 63/75/61 70/84/68
f 21/21/20 23/23/22 48/52/46
f 35/35/33 31/31/29 33/33/31
f 42/42/40 45/46/43 55/62/53
f 27/27/26 5/67/5 26/56/25
f 69/82/67 1/1/1 71/86/65
f 66/78/64 68/83/66 69/82/67
f 63/75/61 56/63/54 50/65/48
f 2/44/2 45/46/43 42/42/40
f 72/88/69 10/10/10 46/47/44
f 30/30/28 47/50/45 46/47/44
f 30/89/28 15/15/15 14/14/14
f 70/90/68 43/43/41 23/23/22
f 21/51/20 49/126/47 10/10/10
f 1/1/1 3/3/3 51/64/49
f 19/19/19 53/60/51 73/91/70
f 54/61/52 44/45/42 74/92/71
f 59/70/57 58/72/56 76/94/73
f 54/61/52 75/93/72 78/96/75
f 64/76/62 73/91/70 79/97/76
f 32/32/30 34/34/32 81/99/78
f 73/91/70 52/59/50 83/101/80
f 34/34/32 18/18/18 84/102/81
f 64/76/62 80/98/77 85/103/82
f 33/33/31 32/32/30 82/104/79
f 52/59/50 13/13/13 87/106/84
f 44/45/42 93/114/90 88/108/85
f 33/33/31 86/105/83 87/109/84
f 8/8/8 95/118/92 89/110/86
f 90/111/87 62/74/60 91/112/88
f 93/114/90 2/44/2 89/115/86
f 8/8/8 97/120/94 94/117/91
f 17/17/17 100/128/97 84/102/81
f 7/7/7 90/111/87 92/113/89
f 97/120/94 7/7/7 96/119/93
f 59/70/57 77/95/74 91/122/88
f 36/36/34 11/11/11 98/123/95
f 17/17/17 36/36/34 99/124/96
