# Blender 4.4.0
# www.blender.org
mtllib box 004.mtl
o cardboard__007
v 18.413492 4.517324 42.790810
v 18.385468 2.212459 48.421566
v 18.385468 2.212475 42.852638
v 17.352741 2.212475 42.852638
v 16.320011 2.212475 42.852638
v 16.318256 3.186402 42.852638
v 16.308340 4.577884 46.585857
v 16.320011 4.657529 48.421566
v 16.320011 4.657529 46.565250
v 17.006048 4.715588 48.421566
v 17.328922 4.834980 46.565250
v 17.006048 4.715588 46.565250
v 17.358450 4.586752 48.483391
v 16.592125 3.188040 48.421566
v 17.352741 2.212459 48.421566
v 17.006048 4.715604 44.708950
v 17.328922 4.776128 42.852638
v 17.005356 4.655621 42.852638
v 17.328922 4.834980 44.708950
v 16.320011 4.657529 44.708950
v 16.320011 2.212458 44.708954
v 17.358685 4.710823 42.852638
v 17.699669 4.719708 48.421566
v 17.699501 4.661111 42.852638
v 16.320011 2.212459 48.421566
v 16.320011 2.212459 46.565250
v 16.302834 4.577900 44.688343
v 16.319471 4.592867 42.852638
v 16.296211 4.513152 42.790810
v 16.320755 3.188040 44.708950
v 16.262276 3.827961 42.852638
v 16.372461 3.879617 46.565250
v 16.320183 3.879616 44.708950
v 16.546906 3.188040 46.565250
v 16.382935 3.879617 48.421566
v 17.356829 4.515246 42.790810
v 18.384827 4.657529 48.421566
v 17.352722 4.657529 48.421566
v 18.384827 4.598931 42.852638
v 17.351086 4.598779 42.852638
v 16.352564 4.492071 43.733387
v 17.336136 4.660654 43.733387
v 18.315889 4.504200 43.733387
v 18.315889 4.506431 47.540817
v 17.336119 4.506431 47.540817
v 16.352715 4.506431 47.540817
v 18.413475 4.595671 48.483391
v 16.309439 4.577884 48.483391
v 17.325493 4.784540 44.722397
v 17.325493 4.784540 48.381226
v 17.325493 4.784540 46.551804
v 17.363636 4.661381 42.892975
v 17.325493 4.726516 42.892975
v 17.006622 4.607782 42.892975
v 17.363720 4.719320 48.381226
v 17.699669 4.670131 48.381226
v 18.374912 4.608864 48.381226
v 18.374912 4.551109 42.892975
v 17.699516 4.612377 42.892975
v 16.330654 4.545940 42.892975
v 17.358770 4.769608 48.421566
v 17.328922 4.834980 48.421566
v 16.331211 4.609674 48.381226
v 17.007298 4.666887 48.381226
vn 0.6574 0.2796 -0.6997
vn 0.5749 -0.5873 0.5697
vn 0.5749 -0.5876 -0.5694
vn -0.0046 -0.7143 -0.6999
vn -0.5768 -0.5778 -0.5774
vn -0.7060 -0.0408 -0.7070
vn -0.9995 0.0302 0.0067
vn -0.4838 0.7411 0.4656
vn -0.6852 0.7284 -0.0000
vn -0.0658 0.3466 0.9357
vn 0.5990 0.8008 -0.0000
vn -0.2176 0.9760 -0.0000
vn -0.0068 0.3341 0.9425
vn -0.6354 -0.0197 0.7719
vn -0.0049 -0.7136 0.7005
vn -0.2179 0.9758 -0.0156
vn 0.4897 0.4808 -0.7274
vn -0.0621 0.3286 -0.9424
vn 0.5949 0.8037 -0.0125
vn -0.6577 0.7532 -0.0111
vn -0.7072 -0.7070 0.0003
vn -0.5445 0.4033 -0.7354
vn 0.0482 0.4168 0.9077
vn 0.0465 0.4036 -0.9138
vn -0.6519 -0.5021 0.5683
vn -0.7712 -0.6358 0.0325
vn -0.9950 0.1002 0.0055
vn -0.4359 0.7625 -0.4781
vn -0.6385 0.2710 -0.7203
vn -0.9996 -0.0010 0.0282
vn -0.7461 -0.0334 -0.6650
vn -0.9873 -0.1550 0.0346
vn -0.9996 -0.0165 0.0248
vn -0.9979 -0.0085 0.0645
vn -0.7283 -0.1632 0.6655
vn -0.0068 0.2967 -0.9549
vn 0.3986 0.8188 0.4130
vn -0.0000 0.9423 0.3348
vn 0.4150 0.7709 -0.4832
vn -0.0030 0.8961 -0.4439
vn -0.0796 0.9964 0.0305
vn -0.0074 0.9975 -0.0702
vn 0.0711 0.9970 0.0291
vn -0.0000 0.9856 -0.1691
vn 0.6460 0.3329 0.6869
vn -0.6594 0.2019 0.7242
vn 0.9977 -0.0676 0.0009
vn 0.8083 -0.4003 0.4318
vn 0.9977 -0.0678 -0.0000
vn -0.7834 -0.4381 -0.4409
vn 0.8076 -0.4050 -0.4287
vn 0.1371 -0.6364 -0.7591
vn -0.7843 -0.4333 0.4440
vn -0.0736 -0.6294 0.7736
vn -0.0572 -0.6302 0.7743
vn -0.0578 -0.6367 -0.7690
vn -0.0742 -0.6359 -0.7682
vn 0.0588 -0.6426 -0.7639
vn -0.5432 0.4145 0.7302
vn 0.4875 0.4944 0.7196
vn 0.0538 -0.6362 0.7697
vn 0.1328 -0.6302 0.7650
vt 0.442807 0.967829
vt 0.498648 0.944424
vt 0.443228 0.944892
vt 0.490160 0.426928
vt 0.479826 0.426836
vt 0.479887 0.417093
vt 0.250030 0.965110
vt 0.231595 0.963798
vt 0.250267 0.964312
vt 0.231472 0.956733
vt 0.250620 0.954017
vt 0.250490 0.957454
vt 0.489554 0.506589
vt 0.481982 0.492496
vt 0.489684 0.482784
vt 0.269024 0.958113
vt 0.287774 0.955267
vt 0.287850 0.958781
vt 0.269124 0.954677
vt 0.268764 0.964880
vt 0.500033 0.482868
vt 0.500509 0.427020
vt 0.268349 0.989406
vt 0.286945 0.989590
vt 0.286853 0.999916
vt 0.443443 0.979014
vt 0.498640 0.975884
vt 0.443420 0.975616
vt 0.231035 0.999448
vt 0.231119 0.989106
vt 0.249738 0.989245
vt 0.268955 0.965693
vt 0.287260 0.965785
vt 0.287858 0.966621
vt 0.287052 0.979870
vt 0.268449 0.979594
vt 0.287145 0.973457
vt 0.250022 0.972152
vt 0.268595 0.972666
vt 0.249746 0.979264
vt 0.231396 0.971646
vt 0.479366 0.410656
vt 0.479757 0.403767
vt 0.490405 0.403821
vt 0.499833 0.507632
vt 0.489485 0.507532
vt 0.500731 0.402908
vt 0.490359 0.402778
vt 0.480309 0.393909
vt 0.490275 0.393909
vt 0.500179 0.394055
vt 0.499059 0.516585
vt 0.489239 0.516493
vt 0.479374 0.516401
vt 0.479128 0.507440
vt 0.498602 0.969110
vt 0.443520 0.968811
vt 0.479335 0.482700
vt 0.480003 0.402762
vt 0.499461 0.968136
vt 0.500133 0.506758
vt 0.479036 0.506428
vt 0.479818 0.499408
vt 0.269017 0.954163
vt 0.232216 0.952697
vt 0.250774 0.953518
vt 0.442822 0.978899
vt 0.288380 0.955459
vt 0.288479 0.958896
vt 0.499215 0.979183
vt 0.499261 0.975831
vt 0.499223 0.969157
vt 0.442899 0.968857
vt 0.442799 0.975555
vt 0.287881 0.965770
vt 0.497804 0.980242
vt 0.498586 0.979298
vt 0.287405 0.954738
vt 0.231165 0.953349
vt 0.231794 0.953196
vt 0.230966 0.963744
vt 0.230820 0.956802
vt 0.230951 0.964588
vt 0.231204 0.978919
vt 0.501007 0.403936
vt 0.444180 0.979966
s 1
usemtl MAT_Cardboard.001
f 1/1/1 2/2/2 3/3/3
f 4/4/4 5/5/5 6/6/6
f 7/7/7 8/8/8 9/9/9
f 10/10/10 11/11/11 12/12/12
f 13/13/13 14/14/14 15/15/15
f 16/16/16 17/17/17 18/18/18
f 12/12/12 19/19/19 16/16/16
f 12/12/12 20/20/20 9/9/9
f 10/10/10 9/9/9 8/8/8
f 2/21/2 4/4/4 3/22/3
f 21/23/21 5/24/5 4/25/4
f 22/26/22 23/27/23 24/28/24
f 15/29/15 25/30/25 26/31/26
f 27/32/27 28/33/28 29/34/29
f 7/7/7 20/20/20 27/32/27
f 21/23/21 6/35/6 5/24/5
f 30/36/30 31/37/31 6/35/6
f 26/31/26 30/36/30 21/23/21
f 30/36/30 32/38/32 33/39/33
f 25/30/25 34/40/34 26/31/26
f 34/40/34 35/41/35 32/38/32
f 31/42/31 29/43/29 36/44/36
f 13/13/13 37/45/37 38/46/38
f 39/47/39 36/44/36 40/48/40
f 40/48/40 41/49/41 42/50/42
f 40/48/40 43/51/43 39/47/39
f 38/46/38 44/52/44 45/53/44
f 20/20/20 18/18/18 28/33/28
f 38/46/38 46/54/44 8/55/8
f 24/28/24 37/56/37 39/57/39
f 15/29/15 21/23/21 4/25/4
f 8/55/8 13/13/13 38/46/38
f 25/58/25 15/15/15 14/14/14
f 6/6/6 36/44/36 4/4/4
f 33/39/33 7/7/7 27/32/27
f 31/37/31 27/32/27 29/34/29
f 35/41/35 7/7/7 32/38/32
f 36/44/36 28/59/28 40/48/40
f 36/44/36 3/22/3 4/4/4
f 47/60/45 39/57/39 37/56/37
f 13/13/13 2/21/2 47/61/45
f 13/13/13 48/62/46 35/63/35
f 11/11/11 49/64/47 19/19/19
f 11/11/11 50/65/48 51/66/49
f 24/28/24 52/67/50 22/26/22
f 18/18/18 53/68/51 54/69/52
f 23/27/23 55/70/53 56/71/54
f 23/27/23 57/72/55 37/56/37
f 24/28/24 58/73/56 59/74/57
f 18/18/18 60/75/58 28/33/28
f 22/26/22 55/76/53 61/77/59
f 19/19/19 53/78/51 17/17/17
f 10/10/10 50/79/48 62/80/60
f 10/10/10 63/81/61 64/82/62
f 1/1/1 47/60/45 2/2/2
f 7/7/7 48/83/46 8/8/8
f 10/10/10 62/80/60 11/11/11
f 13/13/13 35/63/35 14/14/14
f 16/16/16 19/19/19 17/17/17
f 12/12/12 11/11/11 19/19/19
f 12/12/12 16/16/16 20/20/20
f 10/10/10 12/12/12 9/9/9
f 2/21/2 15/15/15 4/4/4
f 22/26/22 61/77/59 23/27/23
f 27/32/27 20/20/20 28/33/28
f 7/7/7 9/9/9 20/20/20
f 21/23/21 30/36/30 6/35/6
f 30/36/30 33/39/33 31/37/31
f 26/31/26 34/40/34 30/36/30
f 30/36/30 34/40/34 32/38/32
f 25/30/25 14/84/14 34/40/34
f 34/40/34 14/84/14 35/41/35
f 13/13/13 47/61/45 37/45/37
f 39/47/39 1/85/1 36/44/36
f 40/48/40 28/59/28 41/49/41
f 40/48/40 42/50/42 43/51/43
f 38/46/38 37/45/37 44/52/44
f 20/20/20 16/16/16 18/18/18
f 38/46/38 45/53/44 46/54/44
f 24/28/24 23/27/23 37/56/37
f 15/29/15 26/31/26 21/23/21
f 8/55/8 48/62/46 13/13/13
f 6/6/6 31/42/31 36/44/36
f 33/39/33 32/38/32 7/7/7
f 31/37/31 33/39/33 27/32/27
f 35/41/35 48/83/46 7/7/7
f 36/44/36 29/43/29 28/59/28
f 36/44/36 1/85/1 3/22/3
f 47/60/45 1/1/1 39/57/39
f 13/13/13 15/15/15 2/21/2
f 11/11/11 51/66/49 49/64/47
f 11/11/11 62/80/60 50/65/48
f 24/28/24 59/74/57 52/67/50
f 18/18/18 17/17/17 53/68/51
f 23/27/23 61/77/59 55/70/53
f 23/27/23 56/71/54 57/72/55
f 24/28/24 39/57/39 58/73/56
f 18/18/18 54/69/52 60/75/58
f 22/26/22 52/86/50 55/76/53
f 19/19/19 49/64/47 53/78/51
f 10/10/10 64/82/62 50/79/48
f 10/10/10 8/8/8 63/81/61
