# Blender 4.4.0
# www.blender.org
mtllib box 010.mtl
o cardboard__013
v 52.060997 3.202749 13.710379
v 57.455872 3.463139 14.490741
v 57.455872 3.202749 13.710379
v 51.950474 3.329380 15.414460
v 52.060997 2.998224 13.778627
v 51.950474 2.801496 13.832422
v 68.245605 0.709937 14.542171
v 68.220497 -1.088647 16.388954
v 68.220497 -1.088647 14.743629
v 68.220497 -3.500968 14.743629
v 68.220497 -3.500967 16.388954
v 52.060997 2.477445 12.217903
v 51.950474 2.273599 12.250384
v 57.419025 2.273599 12.250384
v 57.455872 2.477445 12.217903
v 52.035892 -1.088647 18.034267
v 52.035892 -3.500967 16.388943
v 52.035892 -3.500967 18.034267
v 62.887577 3.857276 16.996510
v 68.245605 4.039784 16.900078
v 62.850742 4.039784 16.900078
v 62.825626 -3.500967 18.034267
v 68.220497 -3.500967 18.034267
v 62.850742 3.119998 13.737990
v 68.245605 2.477445 12.217903
v 62.850742 2.477445 12.217903
v 57.455872 3.648808 15.296034
v 62.850742 3.723529 15.271103
v 52.060997 4.039784 16.900066
v 57.455872 4.039784 16.900066
v 68.245605 3.463139 14.490741
v 68.245605 3.723529 15.271103
v 62.850742 3.463139 14.490741
v 57.455872 3.388417 14.515672
v 52.060997 3.648808 15.296034
v 62.825626 -3.500968 14.743629
v 57.430763 -3.500967 16.388943
v 57.430763 -3.500968 14.743629
v 52.035892 -1.088647 14.743629
v 52.035892 -3.500968 14.743629
v 62.825626 -3.500967 16.388954
v 57.430763 -3.500967 18.034267
v 52.060997 3.519005 15.339353
v 57.419025 3.857276 16.996510
v 51.950474 3.857276 16.996510
v 57.430763 -1.088647 18.034267
v 52.060997 1.751485 17.663620
v 62.825626 -1.088647 18.034267
v 57.455872 1.751485 17.663620
v 68.220497 -1.088647 18.034267
v 62.850742 1.751485 17.663620
v 52.035892 -1.088647 16.388943
v 52.060997 0.709937 14.542171
v 68.356140 2.801496 13.832422
v 68.245605 1.230716 16.102896
v 52.060997 1.230716 16.102896
v 62.887577 2.273599 12.250384
v 68.356140 2.273599 12.250384
v 62.825626 -3.500968 13.098315
v 68.220497 -1.059374 13.658869
v 68.220497 -3.500968 13.098315
v 62.850742 0.189157 12.981458
v 68.245605 0.189157 12.981458
v 57.430763 -3.500968 13.098315
v 62.825626 -1.059374 13.658869
v 57.455872 0.189157 12.981458
v 52.035892 -3.500968 13.098315
v 57.430763 -1.059374 13.658869
v 52.060997 0.189157 12.981458
v 68.356140 3.329380 15.414460
v 68.356140 3.857276 16.996510
v 52.035892 -1.059374 13.658869
v 68.245605 3.119998 13.737990
v 62.850742 3.380388 14.518353
v 68.245605 3.380388 14.518353
v 68.245605 3.519005 15.339353
v 63.549068 2.722045 13.932917
v 63.549068 3.205512 15.381827
v 56.757545 3.205512 15.381816
v 56.757545 2.722045 13.932917
v 63.549068 3.688977 16.830740
v 56.757545 3.688977 16.830727
v 56.757545 2.238567 12.484005
v 68.245605 2.998224 13.778627
v 63.549068 2.238567 12.484005
v 68.245605 1.751485 17.663620
v 52.057335 3.966994 16.914169
v 56.753868 3.616199 16.844831
v 68.241928 3.047208 13.752081
v 68.241928 2.404666 12.231996
v 52.057335 3.129970 13.724471
v 52.057335 2.404666 12.231996
v 52.057335 3.390360 14.504833
v 52.060997 3.463139 14.490741
v 52.060997 3.388417 14.515672
v 52.057335 3.576028 15.310126
v 63.545395 2.165789 12.498097
v 68.241928 3.650750 15.285195
v 68.241928 3.390360 14.504833
v 62.847069 3.390360 14.504833
v 57.452194 3.390360 14.504833
v 68.241928 3.966994 16.914169
v 62.847069 3.307597 14.532444
v 57.452194 3.315639 14.529764
v 52.057335 3.315639 14.529764
v 68.241928 3.307597 14.532455
v 56.753868 2.165789 12.498097
v 63.545395 3.616199 16.844831
vn -0.6751 0.6832 -0.2783
vn 0.0053 0.8649 0.5019
vn 0.0081 0.9259 -0.3776
vn -0.9751 0.2104 -0.0702
vn -0.4827 0.8308 -0.2772
vn 0.9995 -0.0305 0.0092
vn 1.0000 -0.0058 0.0004
vn 1.0000 -0.0069 -0.0001
vn 0.7071 -0.7071 -0.0000
vn -0.4717 0.4622 -0.7509
vn -0.7216 -0.0261 -0.6918
vn -0.0000 -0.2451 -0.9695
vn 0.0041 0.4641 -0.8858
vn -0.6939 0.0499 0.7184
vn -0.7071 -0.7071 -0.0000
vn -0.5774 -0.5774 0.5774
vn -0.0000 0.3861 0.9224
vn 0.4766 0.8018 0.3606
vn -0.0037 0.9029 0.4298
vn -0.0000 -0.7071 0.7071
vn 0.5774 -0.5774 0.5774
vn 0.0048 0.9347 -0.3555
vn 0.4831 0.4639 -0.7426
vn -0.0000 0.4851 -0.8745
vn -0.0043 0.9615 -0.2747
vn -0.0073 0.9671 -0.2541
vn -0.4615 0.8135 0.3540
vn -0.0000 0.9120 0.4103
vn 0.6008 0.3961 -0.6944
vn 0.7097 0.6813 -0.1791
vn -0.0055 0.5062 -0.8624
vn -0.0055 0.5027 -0.8644
vn -0.6804 0.7042 -0.2029
vn -0.0000 -1.0000 -0.0000
vn -1.0000 0.0069 0.0001
vn -0.0000 0.3862 0.9224
vn -0.7216 0.3946 0.5689
vn -0.0000 0.0648 0.9979
vn -0.6799 0.1447 0.7189
vn -0.0000 0.2166 0.9763
vn 0.6917 0.0437 0.7208
vn -1.0000 0.0058 -0.0004
vn -0.9998 -0.0170 0.0066
vn 0.9751 0.2104 -0.0702
vn 0.9995 -0.0286 0.0092
vn -0.9998 -0.0188 0.0066
vn 0.7216 -0.0261 -0.6918
vn -0.0000 -0.6230 -0.7822
vn 0.7944 -0.0901 -0.6007
vn 0.5664 -0.5134 -0.6447
vn -0.0000 -0.4052 -0.9142
vn 0.6843 -0.3160 -0.6572
vn -0.0000 -0.1353 -0.9908
vn -0.5664 -0.5134 -0.6447
vn -0.6810 -0.3075 -0.6647
vn 0.7216 0.3946 0.5689
vn -0.7975 -0.0737 -0.5988
vn 0.7158 0.6533 -0.2468
vn 0.0053 0.8620 0.5070
vn 0.5855 0.6965 0.4148
vn 0.4827 0.8308 -0.2772
vn -0.0660 0.9465 -0.3158
vn 0.0660 0.9465 -0.3158
vn -0.0710 0.8465 0.5277
vn 0.0719 0.8634 0.4994
vn 0.0745 0.5079 -0.8582
vn -0.0741 0.4869 -0.8703
vn 0.6815 0.1391 0.7184
vn -0.7030 0.1692 0.6908
vn 0.0286 0.1888 0.9816
vn 0.9987 -0.0469 0.0180
vn 0.6102 -0.1802 -0.7715
vn -0.9987 0.0468 -0.0195
vn -0.6116 -0.1206 -0.7819
vn -0.7469 0.1625 0.6448
vn -0.5558 0.7210 0.4137
vn -0.5679 0.4219 -0.7067
vn -0.9988 0.0476 -0.0138
vn -0.0460 -0.1877 -0.9812
vn 0.9988 -0.0480 0.0127
vn 0.6657 -0.1741 -0.7256
vn -0.0010 -0.1901 -0.9818
vn -0.0010 0.1902 0.9818
vn 0.6685 0.1087 0.7357
vn -0.0011 0.1901 0.9818
vn -0.0009 -0.1901 -0.9818
vn -0.6844 -0.1053 -0.7215
vn 0.7209 0.0966 0.6863
vn 0.0458 -0.1921 -0.9803
vn -0.0288 0.1914 0.9811
vt 0.219237 0.696361
vt 0.146518 0.708275
vt 0.146518 0.696361
vt 0.575949 0.483935
vt 0.551454 0.487081
vt 0.551454 0.483935
vt 0.551454 0.099745
vt 0.575949 0.129304
vt 0.551454 0.129304
vt 0.551454 0.163380
vt 0.575949 0.163380
vt 0.528163 0.487081
vt 0.528163 0.483935
vt 0.146518 0.669135
vt 0.219237 0.672396
vt 0.146518 0.672396
vt 0.600437 0.423537
vt 0.575949 0.389468
vt 0.600437 0.389468
vt 0.198451 0.440806
vt 0.120424 0.437308
vt 0.198451 0.437308
vt 0.600437 0.238746
vt 0.600437 0.163380
vt 0.073800 0.696361
vt 0.001082 0.672396
vt 0.073800 0.672396
vt 0.276470 0.411586
vt 0.198451 0.411586
vt 0.354497 0.437308
vt 0.276470 0.437308
vt 0.120424 0.398805
vt 0.120424 0.411586
vt 0.198451 0.398805
vt 0.276470 0.398805
vt 0.354497 0.411586
vt 0.551454 0.238746
vt 0.575949 0.314103
vt 0.551454 0.314103
vt 0.551454 0.423537
vt 0.551454 0.389468
vt 0.575949 0.238746
vt 0.600437 0.314103
vt 0.600437 0.487081
vt 0.575949 0.487081
vt 0.276470 0.440806
vt 0.354497 0.440806
vt 0.276470 0.546075
vt 0.354497 0.508109
vt 0.354497 0.546075
vt 0.276470 0.508109
vt 0.354497 0.475167
vt 0.198451 0.546075
vt 0.198451 0.508109
vt 0.276470 0.475167
vt 0.120424 0.508109
vt 0.198451 0.475167
vt 0.575949 0.423537
vt 0.551454 0.453103
vt 0.551454 0.068913
vt 0.575949 0.099745
vt 0.575949 0.453103
vt 0.600437 0.129304
vt 0.073800 0.669135
vt 0.001082 0.669135
vt 0.073800 0.571024
vt 0.001082 0.606413
vt 0.001082 0.571024
vt 0.073800 0.637107
vt 0.001082 0.637107
vt 0.146518 0.571024
vt 0.073800 0.606413
vt 0.146518 0.637107
vt 0.219237 0.571024
vt 0.146518 0.606413
vt 0.219237 0.637107
vt 0.575949 0.068913
vt 0.600437 0.065768
vt 0.600437 0.068913
vt 0.528163 0.423537
vt 0.528163 0.389468
vt 0.528163 0.453103
vt 0.528163 0.129304
vt 0.528163 0.163380
vt 0.528163 0.099745
vt 0.528163 0.068913
vt 0.528163 0.314103
vt 0.528163 0.238746
vt 0.001082 0.696361
vt 0.073800 0.708275
vt 0.001082 0.708275
vt 0.575949 0.065768
vt 0.551454 0.000084
vt 0.575949 0.000084
vt 0.575949 0.552756
vt 0.551454 0.552756
vt 0.600437 0.000084
vt 0.600437 0.552756
vt 0.528163 0.552756
vt 0.551454 0.065768
vt 0.528163 0.000084
vt 0.528163 0.065768
vt 0.600437 0.099745
vt 0.600437 0.453103
vt 0.120424 0.475167
vt 0.601549 0.487081
vt 0.601549 0.552756
vt 0.000084 0.696361
vt 0.000084 0.672396
vt 0.220234 0.696361
vt 0.527043 0.487081
vt 0.220234 0.708275
vt 0.219237 0.708275
vt 0.354497 0.398805
vt 0.355564 0.411586
vt 0.527043 0.065768
vt 0.527043 0.000084
vt 0.119350 0.411586
vt 0.119350 0.398805
vt 0.120424 0.397646
vt 0.198451 0.397646
vt 0.355564 0.437308
vt 0.146518 0.709349
vt 0.119350 0.437308
vt 0.073800 0.709349
vt 0.276470 0.397646
vt 0.354497 0.397646
vt 0.001082 0.709349
vt 0.601549 0.065768
vt 0.000084 0.708275
vt 0.219237 0.669135
vt 0.120424 0.440806
vt 0.600437 0.483935
vt 0.120424 0.546075
vt 0.219237 0.606413
vt 0.220234 0.672396
vt 0.527043 0.552756
vt 0.355564 0.398805
vt 0.219237 0.709349
vt 0.601549 0.000084
s 1
usemtl MAT_Cardboard.001
f 1/1/1 2/2/2 3/3/3
f 4/4/4 5/5/5 6/6/4
f 7/7/6 8/8/7 9/9/8
f 10/10/9 8/8/7 11/11/9
f 6/6/4 12/12/10 13/13/11
f 14/14/12 12/15/10 15/16/13
f 16/17/14 17/18/15 18/19/16
f 19/20/17 20/21/18 21/22/19
f 22/23/20 11/11/9 23/24/21
f 24/25/22 25/26/23 26/27/24
f 27/28/25 21/22/19 28/29/26
f 27/28/25 29/30/27 30/31/28
f 31/32/29 28/29/26 32/33/30
f 33/34/31 27/28/25 28/29/26
f 34/35/32 35/36/33 27/28/25
f 36/37/34 37/38/34 38/39/34
f 17/18/15 39/40/35 40/41/15
f 41/42/34 42/43/20 37/38/34
f 4/4/4 29/44/27 43/45/5
f 44/46/36 29/30/27 45/47/37
f 19/20/17 30/31/28 44/46/36
f 42/48/20 16/49/14 18/50/16
f 46/51/38 47/52/39 16/49/14
f 22/53/20 46/51/38 42/48/20
f 48/54/38 49/55/40 46/51/38
f 22/53/20 50/56/41 48/54/38
f 50/56/41 51/57/40 48/54/38
f 52/58/42 53/59/43 39/40/35
f 54/60/44 55/61/45 7/7/6
f 16/17/14 56/62/46 52/58/42
f 11/11/9 50/63/41 23/24/21
f 57/64/12 25/26/23 58/65/47
f 14/14/12 26/27/24 57/64/12
f 59/66/48 60/67/49 61/68/50
f 60/67/49 62/69/51 63/70/52
f 64/71/48 65/72/53 59/66/48
f 65/72/53 66/73/51 62/69/51
f 67/74/54 68/75/53 64/71/48
f 68/75/53 69/76/55 66/73/51
f 55/61/45 50/63/41 8/8/7
f 70/77/44 20/78/18 71/79/56
f 10/10/9 41/42/34 36/37/34
f 42/43/20 17/18/15 37/38/34
f 40/41/15 72/80/57 67/81/54
f 72/80/57 53/59/43 69/82/55
f 60/83/49 10/10/9 61/84/50
f 7/7/6 60/83/49 63/85/52
f 54/60/44 63/85/52 58/86/47
f 38/39/34 67/81/54 64/87/48
f 10/10/9 59/88/48 61/84/50
f 59/88/48 38/39/34 64/87/48
f 28/29/26 20/21/18 32/33/30
f 73/89/58 74/90/59 75/91/60
f 3/3/3 74/90/59 24/25/22
f 15/16/13 24/25/22 26/27/24
f 1/1/1 15/16/13 12/15/10
f 17/18/15 38/39/34 37/38/34
f 76/92/61 77/93/62 78/94/62
f 5/5/5 79/95/63 80/96/63
f 76/92/61 81/97/64 20/78/18
f 43/45/5 82/98/65 79/95/63
f 5/5/5 83/99/66 12/12/10
f 84/100/61 85/101/67 77/93/62
f 25/102/23 54/60/44 58/86/47
f 70/77/44 86/103/68 55/61/45
f 66/73/51 57/64/12 62/69/51
f 63/70/52 57/64/12 58/65/47
f 84/100/61 70/77/44 54/60/44
f 51/57/40 44/46/36 49/55/40
f 47/52/39 44/46/36 45/47/37
f 47/104/39 4/4/4 56/62/46
f 86/105/68 19/20/17 51/57/40
f 69/76/55 14/14/12 66/73/51
f 69/82/55 6/6/4 13/13/11
f 4/4/4 53/59/43 56/62/46
f 82/98/65 87/106/69 88/107/70
f 25/26/23 89/108/71 90/109/72
f 12/15/10 91/110/73 1/1/1
f 83/99/66 92/111/74 12/12/10
f 1/1/1 93/112/75 94/113/76
f 95/114/77 96/115/78 35/36/33
f 85/101/67 90/116/72 97/117/79
f 31/32/29 98/118/80 99/119/81
f 33/34/31 99/120/81 100/121/82
f 35/36/33 87/122/69 29/30/27
f 94/113/76 101/123/83 2/2/2
f 32/33/30 102/124/84 98/118/80
f 2/2/2 103/125/85 74/90/59
f 95/114/77 104/126/86 105/127/87
f 34/35/32 100/121/82 104/126/86
f 74/90/59 106/128/88 75/91/60
f 81/97/64 102/129/84 20/78/18
f 73/89/58 106/130/88 89/108/71
f 1/1/1 94/113/76 2/2/2
f 4/4/4 43/45/5 5/5/5
f 7/7/6 55/61/45 8/8/7
f 10/10/9 9/9/8 8/8/7
f 6/6/4 5/5/5 12/12/10
f 14/14/12 13/131/11 12/15/10
f 16/17/14 52/58/42 17/18/15
f 19/20/17 71/132/56 20/21/18
f 22/23/20 41/42/34 11/11/9
f 24/25/22 73/89/58 25/26/23
f 27/28/25 30/31/28 21/22/19
f 27/28/25 35/36/33 29/30/27
f 31/32/29 33/34/31 28/29/26
f 33/34/31 34/35/32 27/28/25
f 34/35/32 95/114/77 35/36/33
f 36/37/34 41/42/34 37/38/34
f 17/18/15 52/58/42 39/40/35
f 41/42/34 22/23/20 42/43/20
f 4/4/4 45/133/37 29/44/27
f 44/46/36 30/31/28 29/30/27
f 19/20/17 21/22/19 30/31/28
f 42/48/20 46/51/38 16/49/14
f 46/51/38 49/55/40 47/52/39
f 22/53/20 48/54/38 46/51/38
f 48/54/38 51/57/40 49/55/40
f 22/53/20 23/134/21 50/56/41
f 50/56/41 86/105/68 51/57/40
f 52/58/42 56/62/46 53/59/43
f 54/60/44 70/77/44 55/61/45
f 16/17/14 47/104/39 56/62/46
f 11/11/9 8/8/7 50/63/41
f 57/64/12 26/27/24 25/26/23
f 14/14/12 15/16/13 26/27/24
f 59/66/48 65/72/53 60/67/49
f 60/67/49 65/72/53 62/69/51
f 64/71/48 68/75/53 65/72/53
f 65/72/53 68/75/53 66/73/51
f 67/74/54 72/135/57 68/75/53
f 68/75/53 72/135/57 69/76/55
f 55/61/45 86/103/68 50/63/41
f 70/77/44 76/92/61 20/78/18
f 10/10/9 11/11/9 41/42/34
f 42/43/20 18/19/16 17/18/15
f 40/41/15 39/40/35 72/80/57
f 72/80/57 39/40/35 53/59/43
f 60/83/49 9/9/8 10/10/9
f 7/7/6 9/9/8 60/83/49
f 54/60/44 7/7/6 63/85/52
f 38/39/34 40/41/15 67/81/54
f 10/10/9 36/37/34 59/88/48
f 59/88/48 36/37/34 38/39/34
f 28/29/26 21/22/19 20/21/18
f 73/89/58 24/25/22 74/90/59
f 3/3/3 2/2/2 74/90/59
f 15/16/13 3/3/3 24/25/22
f 1/1/1 3/3/3 15/16/13
f 17/18/15 40/41/15 38/39/34
f 76/92/61 84/100/61 77/93/62
f 5/5/5 43/45/5 79/95/63
f 76/92/61 78/94/62 81/97/64
f 43/45/5 29/44/27 82/98/65
f 5/5/5 80/96/63 83/99/66
f 84/100/61 25/102/23 85/101/67
f 25/102/23 84/100/61 54/60/44
f 70/77/44 71/79/56 86/103/68
f 66/73/51 14/14/12 57/64/12
f 63/70/52 62/69/51 57/64/12
f 84/100/61 76/92/61 70/77/44
f 51/57/40 19/20/17 44/46/36
f 47/52/39 49/55/40 44/46/36
f 47/104/39 45/133/37 4/4/4
f 86/105/68 71/132/56 19/20/17
f 69/76/55 13/131/11 14/14/12
f 69/82/55 53/59/43 6/6/4
f 4/4/4 6/6/4 53/59/43
f 82/98/65 29/44/27 87/106/69
f 25/26/23 73/89/58 89/108/71
f 12/15/10 92/136/74 91/110/73
f 83/99/66 107/137/89 92/111/74
f 1/1/1 91/110/73 93/112/75
f 95/114/77 105/138/87 96/115/78
f 85/101/67 25/102/23 90/116/72
f 31/32/29 32/33/30 98/118/80
f 33/34/31 31/32/29 99/120/81
f 35/36/33 96/115/78 87/122/69
f 94/113/76 93/139/75 101/123/83
f 32/33/30 20/21/18 102/124/84
f 2/2/2 101/123/83 103/125/85
f 95/114/77 34/35/32 104/126/86
f 34/35/32 33/34/31 100/121/82
f 74/90/59 103/125/85 106/128/88
f 81/97/64 108/140/90 102/129/84
f 73/89/58 75/91/60 106/130/88
