# Blender 4.4.0
# www.blender.org
mtllib box 006.mtl
o cardboard__009
v 7.752308 1.881999 36.309223
v 11.281746 1.884027 40.981945
v 12.067039 1.884027 40.091499
v 13.634197 -0.516669 38.405285
v 17.984924 -3.499885 42.146011
v 13.637778 -3.499885 38.312180
v 20.068253 1.629599 49.020641
v 21.342400 -0.532851 46.809933
v 21.572081 1.734870 46.924274
v 21.486084 1.964247 46.882397
v 18.559677 1.724093 47.679062
v 19.998014 1.860226 48.956200
v 9.711344 -3.500949 42.762737
v 4.580544 -3.499885 39.819134
v 5.365566 -3.499885 38.929008
v 15.630666 -3.500966 44.817043
v 21.501371 -3.515070 46.884491
v 20.014214 -3.622351 48.972313
v 22.249214 2.011528 45.862492
v 22.343439 1.782573 45.893639
v 16.415958 2.077102 43.926598
v 17.974434 1.981831 42.147900
v 10.496637 2.121816 41.872272
v 13.275259 1.981832 47.476288
v 14.845372 2.193775 45.707489
v 4.601118 1.981831 39.826412
v 8.938181 1.981831 43.651340
v 20.003860 2.078927 48.935760
v 19.198734 2.252881 49.809566
v 11.396982 2.076646 41.028687
v 15.630666 2.193775 44.817062
v 7.036137 1.929195 37.199043
v 17.636509 1.922693 51.466118
v 17.067602 1.737252 49.363632
v 16.311939 1.783942 50.096275
v 18.351364 -0.622632 50.576717
v 18.451195 -3.607993 50.731941
v 8.448835 1.769092 35.373795
v 9.230295 1.746035 34.398972
v 8.380844 1.551743 35.286865
v 11.281931 -3.500966 40.981827
v 8.501724 -3.500865 35.367172
v 12.852552 -3.500949 39.200951
v 9.290632 -3.499885 34.478363
v 22.268337 -3.469225 45.866463
v 17.201252 -3.500949 43.036152
v 6.931677 -3.500865 37.147423
v 14.060062 -3.500949 46.597939
v 6.842083 -0.573071 37.189213
v 5.483845 -0.527648 38.995003
v 6.882404 1.769092 37.149906
v 6.832809 1.749397 40.103271
v 8.304865 1.636794 38.405827
v 20.018658 1.823739 45.721916
v 17.646221 -3.559158 51.485863
v 8.927689 -3.499885 43.652946
v 8.890053 1.752522 43.658943
v 4.506575 1.752522 39.793083
v 13.273535 1.752523 47.524803
v 17.681442 1.692759 51.557316
v 9.215799 -0.556500 34.594513
v 18.439625 1.873959 50.713966
v 19.882576 -0.636382 48.851082
v 8.380711 -0.573071 35.444553
v 5.261665 1.664007 38.881607
v 18.493155 1.643502 50.797127
v 13.274836 -3.499884 47.486763
v 9.018299 -0.516668 43.639248
v 10.603395 1.837691 35.856026
v 9.288319 1.978807 34.493988
v 18.022982 1.752522 42.139404
v 5.349030 1.886645 38.924717
v 6.111704 1.840580 40.962975
v 13.637373 1.981831 38.322971
v 13.639502 1.752522 38.273544
v 4.758080 -0.516669 39.882088
v 17.562473 -0.574759 51.315544
v 6.797657 1.551726 37.081997
v 22.092896 -0.487090 45.809990
v 9.805433 1.636794 36.704361
v 20.685368 2.076816 47.968658
v 15.630666 2.077102 44.817043
v 20.000853 1.954483 48.947853
v 9.324415 1.854566 34.546200
v 19.961174 1.830429 48.897804
v 20.640858 1.951882 47.925564
v 22.193623 1.887050 45.834316
v 7.002100 1.753248 37.222099
v 6.949465 1.876762 37.188942
v 19.151640 2.127204 49.768993
v 19.951073 1.954483 48.901367
v 7.799286 1.758451 36.348598
v 7.075090 1.805816 37.247677
v 15.608808 2.068521 44.811790
v 11.405092 1.952203 41.050224
v 6.199747 1.854820 38.088543
v 6.154560 1.978571 38.045910
v 4.657301 1.858063 39.856445
v 6.157177 1.717809 40.984970
v 20.763088 1.869026 44.756706
v 20.718004 1.745579 44.736317
v 11.303740 1.760461 40.988262
v 17.600462 1.799347 51.413803
v 15.621899 1.952169 44.796234
v 17.894417 -0.516668 42.162445
v 13.278502 -0.516668 47.396404
v 10.630186 1.714447 35.898594
v 16.285265 1.661576 50.053673
vn -0.6474 0.5240 -0.5535
vn -0.4955 0.6749 0.5468
vn -0.0262 0.9996 0.0044
vn 0.6574 -0.0105 -0.7535
vn 0.4720 -0.6997 -0.5364
vn 0.4722 -0.6970 -0.5397
vn 0.7727 0.1351 0.6202
vn 0.8068 -0.0265 0.5902
vn 0.7954 0.1388 0.5900
vn 0.4019 0.8521 0.3352
vn -0.0674 0.9972 -0.0309
vn 0.4164 0.8392 0.3497
vn -0.0003 -1.0000 0.0003
vn -0.8303 -0.5556 0.0431
vn -0.5488 -0.6954 -0.4640
vn -0.0032 -1.0000 -0.0064
vn 0.5969 -0.6904 0.4088
vn 0.5765 -0.6856 0.4446
vn 0.7644 0.6359 -0.1063
vn 0.9893 0.1301 -0.0667
vn 0.0009 0.9998 -0.0182
vn 0.4341 0.7503 -0.4985
vn -0.0144 0.9999 -0.0017
vn -0.4570 0.7338 0.5027
vn -0.0306 0.9992 0.0241
vn -0.7633 0.6420 0.0719
vn -0.4430 0.7426 0.5023
vn 0.9294 0.3664 0.0443
vn 0.6004 0.5789 0.5517
vn 0.4875 0.6622 -0.5691
vn 0.4973 0.6778 -0.5416
vn -0.1071 0.4035 -0.9087
vn -0.0073 0.6177 0.7864
vn -0.0338 0.9972 -0.0669
vn -0.6136 0.5812 0.5345
vn 0.7163 -0.0249 0.6973
vn 0.5095 -0.6857 0.5198
vn -0.4299 0.8528 -0.2964
vn -0.0879 0.1657 -0.9823
vn -0.7319 0.1907 -0.6542
vn -0.0000 -1.0000 -0.0000
vn -0.5253 -0.7086 -0.4711
vn 0.0003 -1.0000 -0.0003
vn -0.0403 -0.5631 -0.8254
vn 0.8320 -0.5484 -0.0842
vn 0.0015 -1.0000 -0.0009
vn -0.5273 -0.7117 -0.4641
vn -0.0071 -1.0000 -0.0036
vn -0.7702 -0.0220 -0.6375
vn -0.7819 -0.0255 -0.6229
vn -0.3634 0.8650 -0.3459
vn 0.0953 0.9954 -0.0041
vn 0.0689 0.9973 0.0270
vn -0.0840 0.9964 -0.0147
vn 0.0058 -0.5510 0.8345
vn -0.4734 -0.6984 0.5368
vn -0.6603 0.0592 0.7487
vn -0.9902 0.1347 0.0362
vn -0.6672 0.0591 0.7425
vn 0.0479 0.1317 0.9901
vn -0.0490 -0.0290 -0.9984
vn 0.4026 0.8412 0.3609
vn 0.7820 -0.0243 0.6227
vn -0.7320 -0.0313 -0.6806
vn -0.7518 0.1412 -0.6441
vn 0.7112 0.1370 0.6895
vn -0.4803 -0.6994 0.5293
vn -0.6614 -0.0102 0.7500
vn 0.5885 0.6332 -0.5028
vn -0.0285 0.6662 -0.7452
vn 0.6572 0.0602 -0.7513
vn -0.3676 0.8479 -0.3819
vn -0.4403 0.6082 0.6605
vn 0.4129 0.7732 -0.4813
vn 0.6584 0.0590 -0.7503
vn -0.9949 -0.0295 0.0963
vn -0.0131 -0.0266 0.9996
vn -0.7425 0.1932 -0.6414
vn 0.9921 -0.0267 -0.1229
vn -0.0068 0.9944 0.1058
vn 0.6636 0.5542 0.5024
vn -0.4983 0.6881 0.5274
vn 0.1760 0.3649 0.9143
vn 0.1277 -0.3525 -0.9271
vn -0.0665 -0.3550 0.9325
vn 0.7381 -0.4395 0.5119
vn 0.8961 -0.3340 -0.2924
vn -0.9196 -0.3382 0.1998
vn -0.9067 0.4204 -0.0356
vn 0.6560 -0.4431 0.6110
vn 0.9218 -0.3390 -0.1882
vn -0.6663 -0.4442 -0.5990
vn 0.1224 -0.3303 -0.9359
vn 0.6730 -0.0865 -0.7346
vn 0.6627 -0.0856 -0.7440
vn -0.6531 -0.4487 -0.6101
vn -0.6152 0.5113 -0.6000
vn -0.9015 -0.3463 0.2595
vn -0.6041 -0.0817 0.7927
vn 0.4479 0.5838 -0.6772
vn 0.6001 -0.0878 -0.7951
vn -0.6570 -0.0786 0.7497
vn -0.1713 -0.3418 0.9240
vn -0.6704 -0.0759 0.7381
vn 0.6587 -0.0103 -0.7524
vn -0.6681 -0.0102 0.7440
vn 0.7123 -0.0858 -0.6966
vn -0.7117 -0.0875 0.6970
vt 0.002555 0.013425
vt 0.061257 0.002125
vt 0.061104 0.014123
vt 0.061211 0.063298
vt 0.118640 0.093992
vt 0.060329 0.093378
vt 0.960016 0.194304
vt 0.984527 0.217004
vt 0.985884 0.193944
vt 0.985785 0.191435
vt 0.961466 0.172486
vt 0.960162 0.191819
vt 0.059846 0.153108
vt 0.001504 0.164685
vt 0.001534 0.152740
vt 0.118172 0.129626
vt 0.176146 0.107401
vt 0.177135 0.132434
vt 0.998711 0.191443
vt 0.998941 0.193959
vt 0.119630 0.014959
vt 0.176353 0.039409
vt 0.119338 0.038764
vt 0.059309 0.243747
vt 0.117328 0.220349
vt 0.117021 0.244269
vt 0.001504 0.219835
vt 0.059500 0.220019
vt 0.175931 0.254833
vt 0.175095 0.243111
vt 0.060383 0.256006
vt 0.116891 0.255976
vt 0.002470 0.255516
vt 0.925717 0.189433
vt 0.938566 0.171244
vt 0.927895 0.170093
vt 0.958037 0.246018
vt 0.936081 0.216038
vt 0.935475 0.245719
vt 0.807008 0.978620
vt 0.794380 0.977492
vt 0.806870 0.976134
vt 0.060007 0.129212
vt 0.001818 0.104931
vt 0.060206 0.105322
vt 0.001949 0.092956
vt 0.175670 0.094598
vt 0.118479 0.105898
vt 0.001634 0.128843
vt 0.118042 0.153599
vt 0.831886 0.954792
vt 0.854817 0.925541
vt 0.854517 0.955252
vt 0.831242 0.978720
vt 0.853244 0.998558
vt 0.830974 0.997845
vt 0.986230 0.172425
vt 0.177312 0.165866
vt 0.177435 0.154873
vt 0.059769 0.165022
vt 0.059193 0.217687
vt 0.000575 0.217495
vt 0.117666 0.218032
vt 0.176307 0.220710
vt 0.177289 0.218401
vt 0.807422 0.925257
vt 0.796551 0.954547
vt 0.795554 0.925134
vt 0.936779 0.190660
vt 0.959356 0.216920
vt 0.983215 0.247015
vt 0.808481 0.954608
vt 0.831135 0.925441
vt 0.996088 0.247491
vt 0.866592 0.980561
vt 0.855108 0.977293
vt 0.866938 0.978083
vt 0.936418 0.193146
vt 0.118042 0.165459
vt 0.060160 0.194933
vt 0.797012 0.998489
vt 0.794557 0.980031
vt 0.119614 0.041112
vt 0.177243 0.041756
vt 0.854878 0.979725
vt 0.864368 0.999210
vt 0.060958 0.037997
vt 0.060620 0.040345
vt 0.003130 0.194688
vt 0.002393 0.037636
vt 0.001312 0.040007
vt 0.175133 0.195655
vt 0.002355 0.063275
vt 0.831296 0.976288
vt 0.924420 0.245841
vt 0.925241 0.191957
vt 0.865948 0.955360
vt 0.866661 0.925571
vt 0.174427 0.064564
vt 0.808511 0.997791
vt 0.178294 0.013233
vt 0.119760 0.002992
vt 0.179943 0.001327
vt 0.793490 0.980883
vt 0.181340 0.001580
vt 0.179682 0.013425
vt 0.177749 0.039439
vt 0.001335 0.001412
vt 0.002716 0.001327
vt 0.176460 0.243080
vt 0.177304 0.254810
vt 0.001013 0.037414
vt 0.001158 0.013394
vt 0.003038 0.256781
vt 0.116707 0.257219
vt 0.060551 0.257257
vt 0.000660 0.243441
vt 0.002033 0.243371
vt 0.175363 0.256099
vt 0.000084 0.220012
vt 0.867682 0.981405
vt 0.865472 0.999924
vt 0.998596 0.172601
vt 0.999916 0.190722
vt 0.999808 0.172018
vt 0.003352 0.000084
vt 0.061464 0.000867
vt 0.179299 0.000084
vt 0.924597 0.188574
vt 0.119545 0.001741
vt 0.925103 0.215316
vt 0.118471 0.063988
vt 0.117098 0.195363
vt 0.997185 0.217142
vt 0.795930 0.999210
vt 0.177665 0.220740
vt 0.001089 0.255562
vt 0.926760 0.169372
s 1
usemtl MAT_Cardboard.001
f 1/1/1 2/2/2 3/3/3
f 4/4/4 5/5/5 6/6/6
f 7/7/7 8/8/8 9/9/9
f 10/10/10 11/11/11 12/12/12
f 13/13/13 14/14/14 15/15/15
f 16/16/16 17/17/17 18/18/18
f 19/19/19 9/9/9 20/20/20
f 21/21/21 19/22/19 22/23/22
f 23/24/23 24/25/24 25/26/25
f 23/24/23 26/27/26 27/28/27
f 28/29/28 25/26/25 29/30/29
f 30/31/30 25/26/25 31/32/31
f 32/33/32 23/24/23 30/31/30
f 33/34/33 34/35/34 35/36/35
f 18/37/18 36/38/36 37/39/37
f 38/40/38 39/41/39 40/42/40
f 41/43/41 42/44/42 43/45/43
f 43/45/43 44/46/44 6/6/6
f 45/47/45 46/48/46 5/5/5
f 46/48/46 6/6/6 5/5/5
f 16/16/16 43/45/43 46/48/46
f 41/43/41 15/15/15 47/49/47
f 18/18/18 48/50/48 16/16/16
f 16/16/16 13/13/13 41/43/41
f 49/51/49 15/52/15 50/53/50
f 51/54/51 52/55/52 53/56/53
f 19/19/19 54/57/54 10/10/10
f 55/58/55 48/50/48 37/59/37
f 48/50/48 56/60/56 13/13/13
f 57/61/57 26/27/26 58/62/58
f 59/63/59 27/28/27 57/61/57
f 33/64/33 59/63/59 60/65/60
f 42/66/42 61/67/61 44/68/44
f 12/12/12 34/35/34 62/69/62
f 63/70/63 17/71/17 8/8/8
f 64/72/64 47/73/47 49/51/49
f 45/74/45 8/8/8 17/71/17
f 26/75/26 65/76/65 58/77/58
f 7/7/7 62/69/62 66/78/66
f 67/79/67 68/80/68 56/60/56
f 38/40/38 69/81/69 70/82/70
f 71/83/71 19/22/19 20/84/20
f 72/85/72 73/86/73 52/55/52
f 74/87/74 71/83/71 75/88/75
f 56/60/56 76/89/76 14/14/14
f 70/90/70 75/88/75 39/91/39
f 77/92/77 67/79/67 55/58/55
f 61/93/61 6/6/6 44/46/44
f 78/94/78 50/53/50 65/76/65
f 36/38/36 55/95/55 37/39/37
f 66/78/66 33/34/33 60/96/60
f 76/97/76 15/52/15 14/98/14
f 5/5/5 79/99/79 45/47/45
f 78/94/78 64/72/64 49/51/49
f 51/54/51 80/100/80 38/40/38
f 81/101/81 82/102/82 83/103/83
f 3/3/3 82/102/82 21/21/21
f 74/87/74 21/21/21 22/23/22
f 1/1/1 74/87/74 70/90/70
f 29/30/29 24/25/24 33/64/33
f 69/81/69 84/104/84 70/82/70
f 81/101/81 85/105/85 86/106/86
f 19/22/19 86/106/86 87/107/87
f 1/1/1 88/108/88 89/109/89
f 28/29/28 90/110/90 91/111/91
f 1/1/1 84/112/84 92/113/92
f 30/31/30 93/114/93 32/33/32
f 33/64/33 90/110/90 29/30/29
f 30/31/30 94/115/94 95/116/95
f 32/33/32 96/117/96 97/118/97
f 31/32/31 91/119/91 94/115/94
f 97/118/97 98/120/98 26/27/26
f 73/86/73 98/121/98 99/122/99
f 100/123/100 87/124/87 101/125/101
f 2/2/2 88/126/88 102/127/102
f 82/102/82 85/128/85 83/103/83
f 35/36/35 103/129/103 33/34/33
f 2/2/2 104/130/104 82/102/82
f 38/40/38 78/94/78 51/54/51
f 66/78/66 77/131/77 36/38/36
f 78/94/78 72/85/72 51/54/51
f 61/93/61 75/88/75 4/4/4
f 4/4/4 71/83/71 105/132/105
f 71/83/71 79/99/79 105/132/105
f 7/7/7 36/38/36 63/70/63
f 76/97/76 65/76/65 50/53/50
f 77/92/77 59/63/59 106/133/106
f 59/63/59 68/80/68 106/133/106
f 57/61/57 76/89/76 68/80/68
f 40/42/40 61/67/61 64/72/64
f 79/134/79 9/9/9 8/8/8
f 12/12/12 9/9/9 10/10/10
f 1/1/1 89/109/89 2/2/2
f 4/4/4 105/132/105 5/5/5
f 7/7/7 63/70/63 8/8/8
f 10/10/10 54/57/54 11/11/11
f 13/13/13 56/60/56 14/14/14
f 16/16/16 46/48/46 17/17/17
f 19/19/19 10/10/10 9/9/9
f 21/21/21 81/101/81 19/22/19
f 23/24/23 27/28/27 24/25/24
f 23/24/23 97/118/97 26/27/26
f 28/29/28 31/32/31 25/26/25
f 30/31/30 23/24/23 25/26/25
f 32/33/32 97/118/97 23/24/23
f 33/34/33 62/69/62 34/35/34
f 18/37/18 63/70/63 36/38/36
f 38/40/38 70/82/70 39/41/39
f 41/43/41 47/49/47 42/44/42
f 43/45/43 42/44/42 44/46/44
f 45/47/45 17/17/17 46/48/46
f 46/48/46 43/45/43 6/6/6
f 16/16/16 41/43/41 43/45/43
f 41/43/41 13/13/13 15/15/15
f 18/18/18 37/59/37 48/50/48
f 16/16/16 48/50/48 13/13/13
f 49/51/49 47/73/47 15/52/15
f 51/54/51 72/85/72 52/55/52
f 19/19/19 100/123/100 54/57/54
f 55/58/55 67/79/67 48/50/48
f 48/50/48 67/79/67 56/60/56
f 57/61/57 27/28/27 26/27/26
f 59/63/59 24/25/24 27/28/27
f 33/64/33 24/25/24 59/63/59
f 42/66/42 64/72/64 61/67/61
f 12/12/12 11/11/11 34/35/34
f 63/70/63 18/37/18 17/71/17
f 64/72/64 42/66/42 47/73/47
f 45/74/45 79/134/79 8/8/8
f 26/75/26 72/85/72 65/76/65
f 7/7/7 12/12/12 62/69/62
f 67/79/67 106/133/106 68/80/68
f 38/40/38 80/100/80 69/81/69
f 71/83/71 22/23/22 19/22/19
f 72/85/72 26/75/26 73/86/73
f 74/87/74 22/23/22 71/83/71
f 56/60/56 68/80/68 76/89/76
f 70/90/70 74/87/74 75/88/75
f 77/92/77 106/133/106 67/79/67
f 61/93/61 4/4/4 6/6/6
f 78/94/78 49/51/49 50/53/50
f 36/38/36 77/131/77 55/95/55
f 66/78/66 62/69/62 33/34/33
f 76/97/76 50/53/50 15/52/15
f 5/5/5 105/132/105 79/99/79
f 78/94/78 40/42/40 64/72/64
f 51/54/51 53/56/53 80/100/80
f 81/101/81 21/21/21 82/102/82
f 3/3/3 2/2/2 82/102/82
f 74/87/74 3/3/3 21/21/21
f 1/1/1 3/3/3 74/87/74
f 29/30/29 25/26/25 24/25/24
f 69/81/69 107/135/107 84/104/84
f 81/101/81 83/103/83 85/105/85
f 19/22/19 81/101/81 86/106/86
f 1/1/1 92/113/92 88/108/88
f 28/29/28 29/30/29 90/110/90
f 1/1/1 70/90/70 84/112/84
f 30/31/30 95/116/95 93/114/93
f 33/64/33 103/136/103 90/110/90
f 30/31/30 31/32/31 94/115/94
f 32/33/32 93/137/93 96/117/96
f 31/32/31 28/29/28 91/119/91
f 97/118/97 96/117/96 98/120/98
f 73/86/73 26/75/26 98/121/98
f 100/123/100 19/19/19 87/124/87
f 2/2/2 89/109/89 88/126/88
f 82/102/82 104/130/104 85/128/85
f 35/36/35 108/138/108 103/129/103
f 2/2/2 102/127/102 104/130/104
f 38/40/38 40/42/40 78/94/78
f 66/78/66 60/96/60 77/131/77
f 78/94/78 65/76/65 72/85/72
f 61/93/61 39/91/39 75/88/75
f 4/4/4 75/88/75 71/83/71
f 71/83/71 20/84/20 79/99/79
f 7/7/7 66/78/66 36/38/36
f 76/97/76 58/77/58 65/76/65
f 77/92/77 60/65/60 59/63/59
f 59/63/59 57/61/57 68/80/68
f 57/61/57 58/62/58 76/89/76
f 40/42/40 39/41/39 61/67/61
f 79/134/79 20/20/20 9/9/9
f 12/12/12 7/7/7 9/9/9
