# Blender 4.4.0
# www.blender.org
mtllib box 007.mtl
o cardboard__010
v 15.897357 1.988604 28.702066
v 15.898708 1.635865 32.905952
v 17.990921 1.988604 30.104494
v 15.320039 1.823249 34.021435
v 14.070383 1.988604 35.957142
v 14.094269 1.823249 36.064575
v 16.576130 -3.500967 32.014812
v 15.897357 -3.500967 28.702068
v 17.990921 -3.500967 30.104494
v 13.237319 1.781305 32.552029
v 10.960476 1.781306 33.783257
v 12.013321 1.781306 34.488533
v 11.996988 1.988604 34.524578
v 10.896843 1.823249 33.879929
v 11.976431 1.823249 34.603127
v 11.417017 -1.671105 26.113838
v 13.762070 -3.500967 27.271683
v 11.608000 -3.500967 25.828733
v 8.897673 1.823248 29.721806
v 7.700958 1.988604 31.661228
v 8.981253 1.988604 29.749981
v 13.764874 1.823248 27.217833
v 11.608000 1.988603 25.828733
v 13.762070 1.988604 27.271683
v 11.166998 2.089990 31.145651
v 10.958347 2.089990 33.786430
v 12.269760 2.296157 31.823122
v 9.886110 1.988604 33.057793
v 9.822411 1.823248 33.103199
v 9.886110 -3.500967 33.057796
v 7.739927 -1.671104 31.603054
v 7.700958 -3.500967 31.661230
v 9.905216 -1.671104 33.029263
v 7.739927 0.158758 31.603054
v 10.286467 1.988604 27.801537
v 13.741479 1.673264 27.302410
v 10.941254 -1.671104 33.809303
v 10.941254 0.158759 33.809303
v 9.905216 0.158759 33.029263
v 12.440538 1.673264 29.244486
v 14.818531 1.673264 28.023888
v 13.501815 1.794008 29.970270
v 9.904522 2.089990 33.030293
v 12.440538 -3.500967 29.244488
v 11.168875 -3.500967 31.142847
v 10.286467 -3.500967 27.801537
v 8.981237 -3.500967 29.749998
v 13.511070 -3.500967 29.961620
v 14.839105 -3.500967 27.993160
v 12.226467 -3.500967 31.879307
v 10.229862 1.823248 27.733074
v 11.563049 1.823248 25.742887
v 10.286467 -1.671104 27.801537
v 11.417017 0.158758 26.113838
v 9.002354 -1.671104 29.718494
v 9.002354 0.158758 29.718494
v 10.286467 0.158758 27.801537
v 14.883311 1.823248 27.928886
v 14.839105 1.988604 27.993160
v 14.837889 -1.671104 27.992348
v 13.571089 -1.671104 27.556787
v 14.837889 0.158758 27.992348
v 13.571089 0.158758 27.556787
v 9.646244 1.635865 28.881748
v 11.976414 -1.671104 34.502739
v 10.938755 -3.500967 33.815689
v 11.996988 -3.500967 34.524582
v 11.976414 0.158759 34.502739
v 14.033727 -1.671104 35.904491
v 14.033727 0.158759 35.904488
v 15.272825 1.988604 33.960384
v 15.880143 2.195498 28.735039
v 16.576113 1.988604 32.014812
v 15.272825 -3.500967 33.960388
v 13.243720 -3.500967 32.560730
v 14.818531 2.195498 28.023888
v 14.537076 2.195498 30.648907
v 13.497878 2.245211 30.077484
v 14.528343 -3.500967 30.643045
v 17.941277 -1.671104 30.071234
v 14.070383 -3.500966 35.957142
v 15.199903 0.158759 33.884506
v 15.199903 -1.671104 33.884506
v 17.941277 0.158758 30.071234
v 16.490688 -1.671104 31.957584
v 16.490688 0.158759 31.957582
v 16.651045 1.823248 32.034458
v 18.100500 1.823248 30.084003
v 15.873050 0.158758 28.685783
v 15.873050 -1.671104 28.685783
v 15.962881 1.823248 28.652050
v 15.845279 1.988604 33.035530
v 12.829918 2.043351 30.986797
v 11.782814 1.635865 30.267839
v 7.590652 1.823248 31.672953
v 13.903574 1.635865 31.539471
v 11.848778 2.046729 30.169613
v 12.903194 2.046729 30.877693
v 9.797850 2.127423 28.766273
v 10.938755 1.988604 33.815689
v 13.844401 2.189754 31.669962
v 7.757832 1.925327 31.652918
v 9.937090 2.025581 33.006882
v 13.833523 2.124247 31.661551
v 12.830221 1.979465 30.985937
v 14.057004 1.925327 35.901447
v 17.934317 1.925327 30.113329
v 15.846816 2.129923 28.758993
v 14.796909 2.129923 28.055676
v 11.794672 1.576456 30.274900
v 13.490834 2.179078 30.086639
v 11.621782 1.925326 25.884731
v 9.831598 2.062608 28.789888
v 12.902687 1.982794 30.878014
v 13.892037 1.576456 31.532495
v 12.276213 1.801913 31.894339
v 12.282633 1.740680 31.883444
v 15.812340 1.925327 33.012051
v 12.022631 1.720292 34.449039
v 14.796909 1.613449 28.055676
v 15.865178 1.576456 32.883907
v 10.981405 1.720292 33.751534
v 12.276247 2.229468 31.813021
v 13.494720 1.732859 29.980606
v 11.859909 1.982794 30.177738
v 13.731749 1.613449 27.342157
v 10.979294 2.025581 33.754677
v 9.681648 1.576456 28.904095
vn 0.2737 0.8706 -0.4088
vn 0.2794 0.3529 0.8930
vn 0.7080 0.6964 -0.1170
vn 0.8359 0.1570 0.5260
vn 0.1474 0.7027 0.6960
vn 0.2109 0.2104 0.9546
vn 0.5861 -0.6943 0.4177
vn 0.3935 -0.7071 -0.5875
vn 0.8137 -0.5661 -0.1324
vn -0.0489 0.9973 0.0556
vn -0.8665 0.4040 0.2931
vn -0.5182 0.4686 0.7154
vn -0.3031 0.8326 0.4636
vn -0.5624 0.1880 0.8052
vn -0.5517 0.1898 0.8122
vn -0.2257 0.0634 -0.9721
vn 0.3849 -0.6606 -0.6445
vn -0.1197 -0.5255 -0.8423
vn -0.8122 0.2106 -0.5441
vn -0.6941 0.7021 0.1590
vn -0.4464 0.8434 -0.2990
vn 0.5251 0.0485 -0.8496
vn -0.0970 0.6751 -0.7313
vn 0.3369 0.7923 -0.5086
vn -0.0162 0.9964 -0.0831
vn 0.0354 0.4003 0.9157
vn 0.5423 0.7866 0.2953
vn -0.3090 0.8578 0.4107
vn -0.5546 0.1742 0.8137
vn -0.4020 -0.7071 0.5817
vn -0.9810 0.0108 0.1937
vn -0.8049 -0.5660 0.1782
vn -0.5760 0.0094 0.8174
vn -0.9799 -0.0463 0.1940
vn -0.3910 0.8728 -0.2921
vn 0.5209 0.4498 -0.7255
vn -0.5775 0.0041 0.8164
vn -0.5791 -0.0250 0.8149
vn -0.5742 -0.0302 0.8181
vn 0.0725 0.9950 -0.0693
vn 0.8674 0.3937 -0.3042
vn 0.6224 0.7186 0.3103
vn -0.4812 0.5154 0.7092
vn -0.0000 -1.0000 -0.0000
vn -0.5875 -0.7071 -0.3935
vn -0.1861 0.1359 -0.9731
vn -0.8308 -0.0000 -0.5565
vn -0.2258 -0.0995 -0.9691
vn -0.8305 -0.0255 -0.5564
vn 0.5407 0.1920 -0.8190
vn 0.3091 0.8520 -0.4225
vn 0.4669 0.0280 -0.8838
vn 0.4436 0.0911 -0.8916
vn 0.4662 -0.0503 -0.8832
vn 0.4422 -0.1137 -0.8897
vn -0.3075 0.3429 -0.8876
vn -0.5598 0.0018 0.8286
vn -0.4063 -0.7020 0.5849
vn -0.3968 -0.7068 0.5856
vn -0.5596 -0.0250 0.8284
vn 0.2159 0.0186 0.9762
vn 0.2151 -0.0542 0.9751
vn 0.4255 0.8633 0.2716
vn 0.4874 0.5181 -0.7028
vn 0.4427 0.8290 0.3418
vn 0.6093 -0.6946 0.3825
vn -0.0616 0.4124 -0.9089
vn 0.0059 0.9946 0.1037
vn -0.5881 0.7480 -0.3075
vn 0.9854 0.0154 -0.1697
vn 0.1790 -0.5621 0.8074
vn 0.8476 -0.0521 0.5281
vn 0.8485 0.0278 0.5285
vn 0.9841 -0.0507 -0.1700
vn 0.8119 0.0280 0.5831
vn 0.8112 -0.0523 0.5824
vn 0.8049 0.1567 0.5724
vn 0.9628 0.2168 -0.1611
vn 0.5564 -0.0234 -0.8306
vn 0.5565 -0.0000 -0.8308
vn 0.5458 0.1957 -0.8147
vn 0.9190 0.3909 -0.0507
vn 0.2813 0.7115 -0.6439
vn 0.3490 0.6241 -0.6991
vn -0.9567 0.2141 0.1973
vn -0.3543 0.6461 0.6760
vn -0.3854 0.7110 0.5882
vn -0.2667 0.7378 0.6202
vn -0.9007 0.4296 0.0649
vn -0.3235 0.8311 0.4524
vn 0.3703 0.7460 -0.5535
vn -0.7165 -0.6697 0.1956
vn -0.4756 -0.5029 0.7218
vn 0.5603 0.0133 -0.8282
vn 0.5601 0.0138 -0.8283
vn 0.1478 -0.6709 0.7267
vn 0.7233 -0.6702 -0.1663
vn 0.4611 -0.5017 -0.7319
vn -0.3871 -0.2957 -0.8733
vn 0.5538 0.0116 -0.8326
vn -0.8352 0.0128 -0.5497
vn -0.1645 -0.6736 -0.7206
vn -0.8624 -0.3001 0.4078
vn -0.5530 0.0086 0.8331
vn -0.5569 0.0106 0.8305
vn -0.6318 0.6941 -0.3449
vn -0.8262 0.0136 -0.5632
vn 0.8672 -0.3055 -0.3933
vn -0.4655 -0.5299 0.7089
vn 0.9446 -0.3270 0.0272
vn -0.0820 -0.3057 0.9486
vn -0.9514 -0.3053 -0.0405
vn 0.8320 -0.0028 0.5547
vn 0.8304 -0.0021 0.5572
vn -0.5605 0.0077 0.8281
vn 0.4477 -0.5443 -0.7095
vn 0.3469 -0.3216 0.8811
vn 0.0637 -0.3179 -0.9460
vt 0.278551 0.582943
vt 0.302424 0.547984
vt 0.303844 0.583181
vt 0.913375 0.409918
vt 0.890115 0.408966
vt 0.889387 0.410815
vt 0.302662 0.662481
vt 0.278159 0.638347
vt 0.303483 0.638354
vt 0.913859 0.382691
vt 0.890675 0.370455
vt 0.890346 0.383221
vt 0.276103 0.764482
vt 0.263430 0.762410
vt 0.276410 0.762671
vt 0.226269 0.619475
vt 0.252268 0.638185
vt 0.226246 0.638063
vt 0.843963 0.865555
vt 0.866640 0.867665
vt 0.843718 0.867412
vt 0.252452 0.584439
vt 0.226714 0.582360
vt 0.252751 0.582713
vt 0.843096 0.893104
vt 0.865474 0.906583
vt 0.842897 0.905662
vt 0.250296 0.764198
vt 0.250059 0.762364
vt 0.251462 0.708556
vt 0.225072 0.726638
vt 0.225280 0.708388
vt 0.251056 0.727091
vt 0.224727 0.744896
vt 0.820151 0.867220
vt 0.795663 0.893556
vt 0.796323 0.866767
vt 0.264082 0.727390
vt 0.263691 0.745756
vt 0.250649 0.745495
vt 0.819721 0.893687
vt 0.795924 0.906759
vt 0.820020 0.907058
vt 0.865605 0.893687
vt 0.252092 0.662121
vt 0.251815 0.685181
vt 0.226016 0.661844
vt 0.225701 0.685373
vt 0.265087 0.662243
vt 0.265317 0.638278
vt 0.264811 0.685588
vt 0.819928 0.865348
vt 0.795893 0.864896
vt 0.820880 0.811931
vt 0.800328 0.830021
vt 0.797098 0.811693
vt 0.820657 0.830274
vt 0.800074 0.848302
vt 0.843764 0.830581
vt 0.843526 0.848893
vt 0.820412 0.848609
vt 0.844416 0.812246
vt 0.866426 0.830918
vt 0.866172 0.849177
vt 0.265755 0.584654
vt 0.265755 0.582820
vt 0.265425 0.619843
vt 0.252084 0.619582
vt 0.265547 0.601400
vt 0.252153 0.601516
vt 0.224160 0.796963
vt 0.224221 0.763323
vt 0.276617 0.727689
vt 0.264581 0.709017
vt 0.277385 0.709285
vt 0.276180 0.746016
vt 0.301504 0.728372
vt 0.301028 0.746638
vt 0.301995 0.763293
vt 0.913598 0.408084
vt 0.959965 0.383351
vt 0.937403 0.407846
vt 0.961269 0.407992
vt 0.302386 0.686501
vt 0.277231 0.685764
vt 0.959773 0.370854
vt 0.937334 0.383321
vt 0.936398 0.371974
vt 0.277484 0.662343
vt 0.302931 0.620042
vt 0.914311 0.463756
vt 0.891205 0.445414
vt 0.890890 0.463480
vt 0.914196 0.426849
vt 0.914419 0.445237
vt 0.961499 0.444516
vt 0.938101 0.463480
vt 0.962005 0.462659
vt 0.961230 0.426365
vt 0.937740 0.444946
vt 0.937502 0.426580
vt 0.937679 0.409665
vt 0.962074 0.409818
vt 0.278083 0.601523
vt 0.277952 0.619920
vt 0.278796 0.584776
vt 0.304626 0.585029
vt 0.298090 0.798812
vt 0.301143 0.765073
vt 0.262893 0.797362
vt 0.249706 0.798843
vt 0.223415 0.761498
vt 0.278182 0.547968
vt 0.253373 0.548007
vt 0.265662 0.548843
vt 0.228364 0.547738
vt 0.263399 0.764229
vt 0.274638 0.797270
vt 0.302662 0.710137
vt 0.303069 0.601715
vt 0.226423 0.601117
vt 0.890936 0.427294
vt 0.867369 0.868102
vt 0.866349 0.893833
vt 0.274477 0.797899
vt 0.262801 0.797968
vt 0.889417 0.408483
vt 0.223507 0.763768
vt 0.304542 0.582690
vt 0.960709 0.383213
vt 0.960517 0.370847
vt 0.249767 0.799449
vt 0.959374 0.370218
vt 0.936237 0.371353
vt 0.225962 0.581938
vt 0.227596 0.547707
vt 0.962005 0.407586
vt 0.265762 0.548229
vt 0.278205 0.547362
vt 0.914173 0.370586
vt 0.914258 0.369964
vt 0.301849 0.765540
vt 0.298826 0.798904
vt 0.889624 0.383029
vt 0.796269 0.907373
vt 0.000220 0.999916
vt 0.024056 0.999317
vt 0.024462 0.999916
vt 0.891051 0.369849
vt 0.842744 0.906291
vt 0.820082 0.907687
vt 0.253549 0.547370
vt 0.794950 0.893740
vt 0.228808 0.547109
vt 0.866218 0.906575
vt 0.795610 0.867266
vt 0.297691 0.799449
vt 0.865121 0.907250
vt 0.224520 0.797569
vt 0.867369 0.865816
vt 0.225840 0.584063
vt 0.867438 0.812660
vt 0.223446 0.797047
vt 0.303138 0.547876
vt 0.889954 0.370432
vt 0.000082 0.999317
vt 0.795203 0.906774
s 1
usemtl MAT_Cardboard.001
f 1/1/1 2/2/2 3/3/3
f 4/4/4 5/5/5 6/6/6
f 7/7/7 8/8/8 9/9/9
f 10/10/10 11/11/11 12/12/12
f 13/13/13 14/14/14 15/15/15
f 16/16/16 17/17/17 18/18/18
f 19/19/19 20/20/20 21/21/21
f 22/22/22 23/23/23 24/24/24
f 25/25/25 26/26/26 27/27/27
f 14/14/14 28/28/28 29/29/29
f 30/30/30 31/31/31 32/32/32
f 33/33/33 34/34/34 31/31/31
f 35/35/35 36/36/36 23/37/23
f 30/30/30 37/38/37 33/33/33
f 33/33/33 38/39/38 39/40/39
f 40/41/40 41/42/41 36/36/36
f 25/25/25 42/43/42 40/41/40
f 25/25/25 35/35/35 21/21/21
f 43/44/43 21/21/21 20/20/20
f 44/45/44 18/18/18 17/17/17
f 45/46/44 46/47/45 44/45/44
f 30/30/30 47/48/45 45/46/44
f 48/49/44 17/17/17 49/50/8
f 48/49/44 45/46/44 44/45/44
f 50/51/44 30/30/30 45/46/44
f 51/52/19 23/37/23 52/53/46
f 19/19/19 35/35/35 51/52/19
f 46/54/45 16/55/16 18/56/18
f 53/57/47 54/58/48 16/55/16
f 46/54/45 55/59/47 53/57/47
f 53/57/47 56/60/49 57/61/49
f 47/62/45 31/63/31 55/59/47
f 55/59/47 34/64/34 56/60/49
f 58/65/50 24/24/24 59/66/51
f 17/17/17 60/67/52 49/50/8
f 61/68/53 62/69/54 60/67/52
f 16/16/16 63/70/55 61/68/53
f 28/28/28 64/71/56 20/72/20
f 65/73/57 66/74/58 67/75/59
f 68/76/60 37/38/37 65/73/57
f 68/76/60 69/77/61 70/78/62
f 15/15/15 70/78/62 6/79/6
f 71/80/63 12/12/12 5/5/5
f 72/81/64 73/82/65 3/83/3
f 73/82/65 10/10/10 71/80/63
f 74/84/66 67/75/59 75/85/44
f 76/86/67 77/87/68 72/81/64
f 78/88/69 10/10/10 77/87/68
f 75/85/44 66/74/58 50/51/44
f 49/50/8 79/89/44 48/49/44
f 79/89/44 50/51/44 48/49/44
f 7/7/7 75/85/44 79/89/44
f 8/8/8 80/90/70 9/9/9
f 74/91/66 69/92/61 81/93/71
f 82/94/72 69/92/61 83/95/73
f 80/96/70 7/97/7 9/98/9
f 7/97/7 83/95/73 74/91/66
f 84/99/74 85/100/75 80/96/70
f 86/101/76 83/95/73 85/100/75
f 3/83/3 87/102/77 88/103/78
f 73/82/65 4/4/4 87/102/77
f 89/104/79 80/90/70 90/105/80
f 91/106/81 3/3/3 88/107/78
f 49/50/8 90/105/80 8/8/8
f 62/69/54 90/105/80 60/67/52
f 58/65/50 1/1/1 91/106/81
f 92/108/82 13/13/13 5/109/5
f 28/28/28 93/110/83 94/111/84
f 29/29/29 20/72/20 95/112/85
f 59/66/51 96/113/86 1/1/1
f 59/66/51 97/114/87 98/115/88
f 24/24/24 99/116/89 97/114/87
f 100/117/90 101/118/91 93/110/83
f 69/77/61 67/75/59 81/119/71
f 34/34/34 29/29/29 95/112/85
f 58/65/50 89/104/79 62/69/54
f 91/106/81 84/120/74 89/104/79
f 87/102/77 82/94/72 86/101/76
f 84/99/74 87/102/77 86/101/76
f 5/109/5 15/15/15 6/79/6
f 62/69/54 22/22/22 58/65/50
f 56/60/49 51/52/19 57/61/49
f 54/58/48 51/52/19 52/53/46
f 39/40/39 14/14/14 29/29/29
f 54/121/48 22/22/22 63/70/55
f 34/64/34 19/19/19 56/60/49
f 68/76/60 14/14/14 38/39/38
f 4/4/4 70/122/62 82/94/72
f 43/44/43 102/123/92 103/124/93
f 93/110/83 104/125/94 105/126/95
f 12/12/12 106/127/96 5/5/5
f 64/71/56 102/128/92 20/72/20
f 2/2/2 107/129/97 3/3/3
f 76/86/67 108/130/98 109/131/99
f 94/111/84 105/126/95 110/132/100
f 78/88/69 109/133/99 111/134/101
f 99/116/89 112/135/102 113/136/103
f 72/81/64 107/137/97 108/130/98
f 96/113/86 114/138/104 115/139/105
f 116/140/106 111/134/101 117/141/107
f 92/108/82 106/142/96 118/143/108
f 11/11/11 119/144/109 12/12/12
f 42/43/42 120/145/110 41/42/41
f 96/146/86 121/147/111 2/148/2
f 116/140/106 122/149/112 11/11/11
f 42/43/42 123/150/113 124/151/114
f 98/115/88 125/152/115 114/138/104
f 41/42/41 126/153/116 36/36/36
f 97/114/87 113/154/103 125/152/115
f 26/26/26 103/124/93 127/155/117
f 36/36/36 112/156/102 23/37/23
f 101/118/91 118/157/108 104/125/94
f 27/27/27 127/158/117 123/150/113
f 94/111/84 128/159/118 64/71/56
f 1/1/1 96/113/86 2/2/2
f 4/4/4 71/80/63 5/5/5
f 7/7/7 79/89/44 8/8/8
f 10/10/10 116/140/106 11/11/11
f 13/13/13 100/117/90 14/14/14
f 16/16/16 61/68/53 17/17/17
f 19/19/19 95/160/85 20/20/20
f 22/22/22 52/161/46 23/23/23
f 25/25/25 43/44/43 26/26/26
f 14/14/14 100/117/90 28/28/28
f 30/30/30 33/33/33 31/31/31
f 33/33/33 39/40/39 34/34/34
f 35/35/35 40/41/40 36/36/36
f 30/30/30 66/74/58 37/38/37
f 33/33/33 37/38/37 38/39/38
f 40/41/40 42/43/42 41/42/41
f 25/25/25 27/27/27 42/43/42
f 25/25/25 40/41/40 35/35/35
f 43/44/43 25/25/25 21/21/21
f 44/45/44 46/47/45 18/18/18
f 45/46/44 47/48/45 46/47/45
f 30/30/30 32/32/32 47/48/45
f 48/49/44 44/45/44 17/17/17
f 48/49/44 50/51/44 45/46/44
f 50/51/44 66/74/58 30/30/30
f 51/52/19 35/35/35 23/37/23
f 19/19/19 21/21/21 35/35/35
f 46/54/45 53/57/47 16/55/16
f 53/57/47 57/61/49 54/58/48
f 46/54/45 47/62/45 55/59/47
f 53/57/47 55/59/47 56/60/49
f 47/62/45 32/162/32 31/63/31
f 55/59/47 31/63/31 34/64/34
f 58/65/50 22/22/22 24/24/24
f 17/17/17 61/68/53 60/67/52
f 61/68/53 63/70/55 62/69/54
f 16/16/16 54/121/48 63/70/55
f 28/28/28 94/111/84 64/71/56
f 65/73/57 37/38/37 66/74/58
f 68/76/60 38/39/38 37/38/37
f 68/76/60 65/73/57 69/77/61
f 15/15/15 68/76/60 70/78/62
f 71/80/63 10/10/10 12/12/12
f 72/81/64 77/87/68 73/82/65
f 73/82/65 77/87/68 10/10/10
f 74/84/66 81/119/71 67/75/59
f 76/86/67 78/88/69 77/87/68
f 78/88/69 116/140/106 10/10/10
f 75/85/44 67/75/59 66/74/58
f 49/50/8 8/8/8 79/89/44
f 79/89/44 75/85/44 50/51/44
f 7/7/7 74/84/66 75/85/44
f 8/8/8 90/105/80 80/90/70
f 74/91/66 83/95/73 69/92/61
f 82/94/72 70/122/62 69/92/61
f 80/96/70 85/100/75 7/97/7
f 7/97/7 85/100/75 83/95/73
f 84/99/74 86/101/76 85/100/75
f 86/101/76 82/94/72 83/95/73
f 3/83/3 73/82/65 87/102/77
f 73/82/65 71/80/63 4/4/4
f 89/104/79 84/120/74 80/90/70
f 91/106/81 1/1/1 3/3/3
f 49/50/8 60/67/52 90/105/80
f 62/69/54 89/104/79 90/105/80
f 58/65/50 59/66/51 1/1/1
f 92/108/82 101/118/91 13/13/13
f 28/28/28 100/117/90 93/110/83
f 29/29/29 28/28/28 20/72/20
f 59/66/51 98/115/88 96/113/86
f 59/66/51 24/24/24 97/114/87
f 24/24/24 23/23/23 99/116/89
f 100/117/90 13/13/13 101/118/91
f 69/77/61 65/73/57 67/75/59
f 34/34/34 39/40/39 29/29/29
f 58/65/50 91/106/81 89/104/79
f 91/106/81 88/107/78 84/120/74
f 87/102/77 4/4/4 82/94/72
f 84/99/74 88/103/78 87/102/77
f 5/109/5 13/13/13 15/15/15
f 62/69/54 63/70/55 22/22/22
f 56/60/49 19/19/19 51/52/19
f 54/58/48 57/61/49 51/52/19
f 39/40/39 38/39/38 14/14/14
f 54/121/48 52/161/46 22/22/22
f 34/64/34 95/160/85 19/19/19
f 68/76/60 15/15/15 14/14/14
f 4/4/4 6/6/6 70/122/62
f 43/44/43 20/20/20 102/123/92
f 93/110/83 101/118/91 104/125/94
f 12/12/12 119/144/109 106/127/96
f 64/71/56 128/163/118 102/128/92
f 2/2/2 121/164/111 107/129/97
f 76/86/67 72/81/64 108/130/98
f 94/111/84 93/110/83 105/126/95
f 78/88/69 76/86/67 109/133/99
f 99/116/89 23/23/23 112/135/102
f 72/81/64 3/83/3 107/137/97
f 96/113/86 98/115/88 114/138/104
f 116/140/106 78/88/69 111/134/101
f 92/108/82 5/109/5 106/142/96
f 11/11/11 122/165/112 119/144/109
f 42/43/42 124/151/114 120/145/110
f 96/146/86 115/166/105 121/147/111
f 116/140/106 117/141/107 122/149/112
f 42/43/42 27/27/27 123/150/113
f 98/115/88 97/114/87 125/152/115
f 41/42/41 120/167/110 126/153/116
f 97/114/87 99/116/89 113/154/103
f 26/26/26 43/44/43 103/124/93
f 36/36/36 126/153/116 112/156/102
f 101/118/91 92/108/82 118/157/108
f 27/27/27 26/26/26 127/158/117
f 94/111/84 110/132/100 128/159/118
