# Blender 4.4.0
# www.blender.org
mtllib box 008.mtl
o cardboard__0011
v 64.090164 -1.088646 25.275372
v 63.163651 0.459414 23.864956
v 63.186813 -1.088646 23.900209
v 69.645203 3.030459 20.315952
v 68.651260 2.552237 19.037565
v 69.486389 3.179446 20.308872
v 67.347427 3.586422 21.513184
v 68.884834 3.272824 19.593294
v 66.929855 3.272824 20.877523
v 69.025917 -3.500967 24.001606
v 70.138786 -3.500967 21.301998
v 71.042122 -3.500967 22.677149
v 68.422073 3.680000 23.004148
v 70.321526 3.806654 21.580179
v 68.305305 3.806654 22.904636
v 68.332092 -1.088647 18.551689
v 69.235443 -3.500967 19.926849
v 68.332092 -3.500967 18.551701
v 63.739464 1.731377 20.426022
v 61.767517 1.925028 21.739618
v 63.783710 1.925028 20.415173
v 64.299675 -3.500967 21.200615
v 63.186813 -3.500967 23.900211
v 62.283474 -3.500967 22.525061
v 64.090164 -3.500967 25.275372
v 66.217484 2.238626 19.726362
v 67.816132 1.925028 17.766247
v 65.799911 1.925028 19.090714
v 62.185074 2.238626 22.375278
v 64.201279 2.238626 21.050819
v 63.058895 3.100651 23.505323
v 64.596306 2.787053 21.585434
v 62.641327 2.787053 22.869663
v 65.013863 3.100651 22.221094
v 66.646889 2.364660 20.446774
v 67.064453 2.678271 21.082434
v 68.601868 2.364660 19.162544
v 71.042122 -1.088646 22.677149
v 70.081970 0.904255 21.215515
v 70.951675 1.349084 22.539457
v 67.219223 -3.500967 21.251307
v 69.212265 0.459414 19.891582
v 68.935471 1.349085 23.863914
v 70.138786 -1.088647 21.301998
v 63.381203 3.030460 24.430822
v 64.033356 0.904255 25.188887
v 62.293949 0.014585 22.541014
v 64.310150 0.014585 21.216568
v 66.106361 -3.500967 23.950914
v 68.122581 -3.500967 22.626457
v 69.235443 -1.088647 19.926849
v 65.203018 -3.500967 22.575764
v 66.315880 -3.500967 19.876158
v 68.780334 2.380918 18.999384
v 63.437771 3.179434 24.282246
v 62.516335 2.380918 23.114229
v 68.342575 0.014584 18.567654
v 65.827469 1.731377 19.054407
v 67.915451 1.731377 17.682793
v 66.326355 0.014585 19.892109
v 66.315880 -1.088647 19.876158
v 64.299675 -1.088647 21.200615
v 64.903053 1.349085 26.512829
v 66.334076 3.680001 24.375774
v 64.246071 3.680001 25.747391
v 64.272911 3.806643 25.553553
v 66.289101 3.806643 24.229107
v 67.009705 -3.500967 25.326065
v 64.993507 -1.088646 26.650509
v 64.993507 -3.500967 26.650511
v 67.009705 -1.088646 25.326063
v 69.025909 -1.088646 24.001606
v 66.919250 1.349085 25.188372
v 62.283474 -1.088646 22.525061
v 61.651466 1.731377 21.797649
v 70.510071 3.680000 21.632534
v 63.572090 2.991870 24.286552
v 65.109489 2.678271 22.366663
v 63.154522 2.678271 23.650892
v 65.527061 2.991869 23.002312
v 65.871536 3.493044 23.593435
v 63.855339 3.493045 24.917892
v 67.887749 3.493044 22.268990
v 69.903954 3.493044 20.944530
v 69.302391 3.586422 20.228954
v 64.124886 2.462662 22.127668
v 62.602642 2.552237 23.010925
v 68.792618 3.631638 22.453312
v 66.386765 2.192241 18.790928
v 67.165009 2.776729 19.975645
v 63.346638 1.878174 20.942940
v 65.610275 3.945704 24.388872
v 64.832031 3.361217 23.204144
v 68.014374 3.047150 21.268606
v 69.263161 3.513948 20.258354
v 68.866478 3.216022 19.654497
v 67.009254 3.216022 20.874493
v 65.279915 2.651198 22.289167
v 69.834641 3.425240 20.938152
v 67.158340 2.730871 19.995916
v 68.007690 3.001292 21.288866
v 67.809433 1.879169 17.786518
v 66.380081 2.146383 18.811199
v 62.675690 2.754806 22.898001
v 63.093399 3.068510 23.533871
v 65.049026 3.068510 22.249208
v 67.100304 2.645990 21.110161
v 62.219284 2.206205 22.403439
v 63.389267 1.835875 21.013330
v 64.298622 3.729136 25.539742
v 65.611580 3.865657 24.396317
v 64.847542 3.291844 23.233240
v 64.153313 2.409688 22.176418
v 68.233688 2.238626 18.401905
v 69.019432 2.678271 19.798204
vn -0.8358 -0.0000 0.5490
vn -0.8307 -0.0281 0.5561
vn 0.7400 0.2654 -0.6180
vn 0.2337 0.8198 -0.5228
vn 0.1595 0.8397 -0.5191
vn -0.1880 0.9808 -0.0512
vn 0.2235 0.0935 -0.9702
vn -0.5849 0.3301 -0.7409
vn 0.3882 -0.7071 0.5910
vn 0.5910 -0.7071 -0.3882
vn 0.7995 -0.5773 0.1656
vn 0.4427 0.5916 0.6739
vn 0.1955 0.9658 -0.1701
vn 0.0872 0.9873 0.1328
vn 0.2001 0.0061 -0.9798
vn 0.1656 -0.5774 -0.7995
vn -0.5359 -0.2171 -0.8159
vn -0.5748 0.7097 -0.4073
vn -0.4439 0.5884 -0.6758
vn -0.3882 -0.7071 -0.5910
vn -0.5910 -0.7071 0.3882
vn -0.7995 -0.5773 -0.1656
vn -0.1466 0.9637 -0.2231
vn -0.2167 0.5712 -0.7917
vn -0.5749 0.8118 -0.1024
vn -0.2393 0.8703 -0.4305
vn -0.5077 0.6951 0.5090
vn -0.2018 0.8530 -0.4813
vn -0.7761 0.6125 0.1502
vn 0.1252 0.9910 0.0465
vn -0.1124 0.9539 -0.2784
vn 0.0897 0.9936 -0.0679
vn -0.1440 0.9650 -0.2192
vn 0.9768 0.0241 0.2128
vn 0.8398 -0.0257 -0.5422
vn 0.9562 0.1600 0.2452
vn -0.0000 -1.0000 -0.0000
vn 0.8402 -0.0281 -0.5415
vn 0.5338 0.2343 0.8125
vn 0.8358 -0.0000 -0.5490
vn -0.8611 0.2654 0.4337
vn -0.8311 -0.0257 0.5555
vn -0.9781 -0.1851 -0.0951
vn -0.5321 -0.2468 -0.8099
vn 0.7411 0.2630 -0.6177
vn -0.6002 0.7991 -0.0351
vn -0.8612 0.2631 0.4348
vn 0.3012 -0.1851 -0.9354
vn 0.1764 -0.0288 -0.9839
vn -0.5490 0.0086 -0.8358
vn -0.1547 0.1600 0.9749
vn -0.3093 0.5258 0.7924
vn -0.1228 0.9462 0.2993
vn -0.1926 0.0241 0.9810
vn -0.1656 -0.5774 0.7995
vn 0.5487 0.0337 0.8353
vn -0.9787 0.0061 -0.2054
vn -0.9730 -0.0288 -0.2288
vn 0.8501 0.5258 0.0308
vn -0.2713 0.8694 -0.4130
vn -0.3887 0.8490 -0.3579
vn -0.2093 0.9245 -0.3186
vn -0.3170 0.8879 -0.3334
vn -0.2690 0.8718 -0.4095
vn -0.2665 0.8743 -0.4057
vn -0.1398 0.9824 -0.1235
vn 0.1660 0.8995 -0.4042
vn 0.6056 0.5671 -0.5582
vn 0.4720 0.5939 -0.6515
vn -0.5397 0.8397 -0.0598
vn -0.2658 0.9223 -0.2805
vn -0.7907 0.4741 -0.3873
vn -0.5551 0.8281 0.0785
vn 0.2522 0.7918 -0.5563
vn 0.6812 0.7321 -0.0002
vn 0.3428 0.6663 -0.6623
vn -0.4913 0.8709 -0.0099
vn 0.7192 -0.5575 -0.4145
vn 0.1481 -0.7466 -0.6485
vn -0.4366 -0.5733 -0.6934
vn -0.4173 -0.5445 -0.7276
vn 0.5981 -0.5578 -0.5755
vn -0.8394 0.3172 0.4414
vn -0.8197 0.3272 0.4701
vn -0.5945 -0.2509 -0.7639
vn -0.9769 0.0505 -0.2077
vn -0.7249 -0.1908 0.6619
vn -0.0956 0.6017 0.7930
vn 0.3741 0.8078 0.4556
vn 0.4025 0.8113 0.4240
vn -0.6815 -0.0880 0.7265
vn 0.8440 -0.0396 -0.5349
vn 0.6498 0.0809 0.7558
vn 0.9944 0.0260 0.1029
vn 0.8456 -0.0344 -0.5327
vn 0.8462 -0.0352 -0.5317
vn -0.1493 0.9623 -0.2273
vt 0.635868 0.401125
vt 0.658307 0.373975
vt 0.658307 0.401125
vt 0.635868 0.647081
vt 0.658307 0.650396
vt 0.635868 0.650396
vt 0.904887 0.647899
vt 0.866461 0.659636
vt 0.904887 0.659636
vt 0.613467 0.511771
vt 0.635868 0.548449
vt 0.613467 0.548449
vt 0.904887 0.620066
vt 0.866461 0.623181
vt 0.904887 0.623181
vt 0.680623 0.585387
vt 0.658307 0.548449
vt 0.680623 0.548449
vt 0.250383 0.863248
vt 0.215647 0.860440
vt 0.250383 0.860440
vt 0.680623 0.474833
vt 0.658307 0.438055
vt 0.680623 0.438055
vt 0.635868 0.438055
vt 0.285266 0.849761
vt 0.319910 0.860440
vt 0.285266 0.860440
vt 0.215647 0.849761
vt 0.250383 0.849761
vt 0.215647 0.827905
vt 0.250383 0.838584
vt 0.215647 0.838584
vt 0.250383 0.827905
vt 0.285266 0.838584
vt 0.285266 0.827905
vt 0.319910 0.838584
vt 0.613467 0.585387
vt 0.635868 0.612529
vt 0.613467 0.612529
vt 0.658307 0.511771
vt 0.658307 0.612529
vt 0.866461 0.587562
vt 0.904887 0.587562
vt 0.635868 0.585387
vt 0.635868 0.339423
vt 0.635868 0.373975
vt 0.215647 0.892560
vt 0.250383 0.892560
vt 0.635868 0.474833
vt 0.635868 0.511771
vt 0.658307 0.585387
vt 0.658307 0.474833
vt 0.680623 0.511771
vt 0.658307 0.647081
vt 0.680623 0.650396
vt 0.635868 0.336109
vt 0.658307 0.339423
vt 0.680623 0.612529
vt 0.285266 0.863248
vt 0.319910 0.863248
vt 0.285266 0.946905
vt 0.319910 0.915583
vt 0.319910 0.946905
vt 0.285266 0.892560
vt 0.319910 0.892560
vt 0.250383 0.946905
vt 0.285266 0.915583
vt 0.215647 0.946905
vt 0.250383 0.915583
vt 0.982101 0.587562
vt 0.943575 0.620066
vt 0.982101 0.620066
vt 0.982101 0.623181
vt 0.943575 0.623181
vt 0.943575 0.527279
vt 0.982101 0.562024
vt 0.982101 0.527279
vt 0.943575 0.562024
vt 0.904887 0.527279
vt 0.904887 0.562024
vt 0.943575 0.587562
vt 0.866461 0.527279
vt 0.866461 0.562024
vt 0.680623 0.373975
vt 0.680623 0.401125
vt 0.680623 0.336109
vt 0.680623 0.339423
vt 0.613467 0.650396
vt 0.613467 0.647081
vt 0.982101 0.647899
vt 0.943575 0.659636
vt 0.982101 0.659636
vt 0.943575 0.647899
vt 0.943575 0.635034
vt 0.982101 0.635034
vt 0.904887 0.635034
vt 0.866461 0.635034
vt 0.866461 0.647899
vt 0.613467 0.438055
vt 0.613467 0.474833
vt 0.613467 0.336109
vt 0.613467 0.339423
vt 0.613467 0.401125
vt 0.658307 0.309074
vt 0.658307 0.336109
vt 0.613467 0.677530
vt 0.613467 0.373975
vt 0.680623 0.677530
vt 0.658307 0.677530
vt 0.680623 0.309074
vt 0.613467 0.309074
vt 0.635868 0.309074
vt 0.635868 0.677530
vt 0.864673 0.647899
vt 0.864673 0.659636
vt 0.904887 0.661240
vt 0.943575 0.661240
vt 0.864673 0.635034
vt 0.658307 0.678305
vt 0.635868 0.678305
vt 0.681314 0.650396
vt 0.681314 0.677530
vt 0.214849 0.838584
vt 0.214849 0.827905
vt 0.250383 0.827184
vt 0.285266 0.827184
vt 0.215647 0.827184
vt 0.214849 0.849761
vt 0.680623 0.307816
vt 0.612347 0.336109
vt 0.612347 0.309074
vt 0.613467 0.307816
vt 0.635868 0.307816
vt 0.658307 0.307816
vt 0.866461 0.620066
vt 0.215647 0.863248
vt 0.319910 0.849761
vt 0.319910 0.827905
vt 0.680623 0.647081
vt 0.215647 0.915583
vt 0.866461 0.661240
vt 0.680623 0.678305
s 1
usemtl MAT_Cardboard.001
f 1/1/1 2/2/2 3/3/1
f 4/4/3 5/5/4 6/6/5
f 7/7/6 8/8/7 9/9/8
f 10/10/9 11/11/10 12/12/11
f 13/13/12 14/14/13 15/15/14
f 16/16/15 17/17/10 18/18/16
f 19/19/17 20/20/18 21/21/19
f 22/22/20 23/23/21 24/24/22
f 1/1/1 23/23/21 25/25/21
f 26/26/23 27/27/24 28/28/19
f 29/29/25 21/21/19 20/20/18
f 30/30/26 28/28/19 21/21/19
f 31/31/27 32/32/28 33/33/29
f 33/33/29 30/30/26 29/29/25
f 34/34/30 35/35/31 32/32/28
f 35/35/31 30/30/26 32/32/28
f 36/36/32 37/37/33 35/35/31
f 37/37/33 26/26/23 35/35/31
f 11/11/10 38/38/34 12/12/11
f 38/38/34 39/39/35 40/40/36
f 41/41/37 18/18/16 17/17/10
f 42/42/38 4/4/3 39/39/35
f 40/43/36 13/13/12 43/44/39
f 44/45/40 42/42/38 39/39/35
f 45/46/41 2/2/2 46/47/42
f 47/48/43 19/19/17 48/49/44
f 49/50/37 41/41/37 50/51/37
f 51/52/40 11/11/10 17/17/10
f 52/53/37 53/54/20 41/41/37
f 54/55/45 27/56/24 5/5/4
f 55/57/46 56/58/47 45/46/41
f 57/59/48 54/55/45 42/42/38
f 58/60/17 27/27/24 59/61/49
f 58/60/17 21/21/19 28/28/19
f 53/62/20 16/63/15 18/64/16
f 16/63/15 60/65/44 57/66/48
f 22/67/20 61/68/50 53/62/20
f 61/68/50 48/49/44 60/65/44
f 24/69/22 62/70/50 22/67/20
f 62/70/50 47/48/43 48/49/44
f 57/66/48 58/60/17 59/61/49
f 51/52/40 57/59/48 42/42/38
f 3/3/1 24/24/22 23/23/21
f 60/65/44 19/19/17 58/60/17
f 63/71/51 64/72/12 65/73/52
f 64/72/12 66/74/53 65/73/52
f 13/13/12 67/75/14 64/72/12
f 68/76/9 69/77/54 70/78/55
f 71/79/56 63/71/51 69/77/54
f 10/80/9 71/79/56 68/76/9
f 72/81/56 73/82/39 71/79/56
f 12/83/11 72/81/56 10/80/9
f 38/84/34 43/44/39 72/81/56
f 3/3/1 47/85/43 74/86/57
f 56/58/47 20/87/18 75/88/58
f 25/25/21 52/53/37 49/50/37
f 43/44/39 64/72/12 73/82/39
f 4/4/3 14/89/13 76/90/59
f 56/58/47 47/85/43 2/2/2
f 39/39/35 76/90/59 40/40/36
f 77/91/60 78/92/61 79/93/62
f 80/94/63 9/9/8 78/92/61
f 66/74/53 81/95/64 82/96/65
f 81/95/64 77/91/60 82/96/65
f 67/75/14 83/97/66 81/95/64
f 83/97/66 80/94/63 81/95/64
f 15/15/14 84/98/67 83/97/66
f 83/97/66 85/99/68 7/7/6
f 70/100/55 49/50/37 68/101/9
f 66/102/53 45/46/41 65/103/52
f 68/101/9 50/51/37 10/10/9
f 69/104/54 25/25/21 70/100/55
f 55/57/46 86/105/69 87/106/70
f 6/6/5 88/107/71 14/89/13
f 46/47/42 69/104/54 63/108/51
f 5/5/4 89/109/72 90/110/73
f 65/103/52 46/47/42 63/108/51
f 87/106/70 91/111/74 20/87/18
f 55/57/46 92/112/75 93/113/76
f 5/5/4 94/114/77 6/6/5
f 17/17/10 50/51/37 41/41/37
f 8/8/7 95/115/78 96/116/79
f 8/8/7 97/117/80 9/9/8
f 9/9/8 98/118/81 78/92/61
f 85/99/68 99/119/82 95/115/78
f 94/114/77 100/120/83 101/121/84
f 89/109/72 100/120/83 90/110/73
f 89/109/72 102/122/85 103/123/86
f 31/31/27 104/124/87 105/125/88
f 36/36/32 106/126/89 107/127/90
f 34/34/30 105/128/88 106/126/89
f 33/33/29 108/129/91 104/124/87
f 86/105/69 109/130/92 91/111/74
f 92/112/75 110/131/93 111/132/94
f 93/113/76 111/133/94 112/134/95
f 93/113/76 113/135/96 86/105/69
f 1/1/1 46/47/42 2/2/2
f 4/4/3 54/55/45 5/5/4
f 7/7/6 85/99/68 8/8/7
f 10/10/9 50/51/37 11/11/10
f 13/13/12 76/136/59 14/14/13
f 16/16/15 51/52/40 17/17/10
f 19/19/17 75/137/58 20/20/18
f 22/22/20 52/53/37 23/23/21
f 1/1/1 3/3/1 23/23/21
f 26/26/23 114/138/97 27/27/24
f 29/29/25 30/30/26 21/21/19
f 30/30/26 26/26/23 28/28/19
f 31/31/27 34/34/30 32/32/28
f 33/33/29 32/32/28 30/30/26
f 34/34/30 36/36/32 35/35/31
f 35/35/31 26/26/23 30/30/26
f 36/36/32 115/139/62 37/37/33
f 37/37/33 114/138/97 26/26/23
f 11/11/10 44/45/40 38/38/34
f 38/38/34 44/45/40 39/39/35
f 41/41/37 53/54/20 18/18/16
f 42/42/38 54/55/45 4/4/3
f 40/43/36 76/136/59 13/13/12
f 44/45/40 51/52/40 42/42/38
f 45/46/41 56/58/47 2/2/2
f 47/48/43 75/137/58 19/19/17
f 49/50/37 52/53/37 41/41/37
f 51/52/40 44/45/40 11/11/10
f 52/53/37 22/22/20 53/54/20
f 54/55/45 59/140/49 27/56/24
f 55/57/46 87/106/70 56/58/47
f 57/59/48 59/140/49 54/55/45
f 58/60/17 28/28/19 27/27/24
f 58/60/17 19/19/17 21/21/19
f 53/62/20 61/68/50 16/63/15
f 16/63/15 61/68/50 60/65/44
f 22/67/20 62/70/50 61/68/50
f 61/68/50 62/70/50 48/49/44
f 24/69/22 74/141/57 62/70/50
f 62/70/50 74/141/57 47/48/43
f 57/66/48 60/65/44 58/60/17
f 51/52/40 16/16/15 57/59/48
f 3/3/1 74/86/57 24/24/22
f 60/65/44 48/49/44 19/19/17
f 63/71/51 73/82/39 64/72/12
f 64/72/12 67/75/14 66/74/53
f 13/13/12 15/15/14 67/75/14
f 68/76/9 71/79/56 69/77/54
f 71/79/56 73/82/39 63/71/51
f 10/80/9 72/81/56 71/79/56
f 72/81/56 43/44/39 73/82/39
f 12/83/11 38/84/34 72/81/56
f 38/84/34 40/43/36 43/44/39
f 3/3/1 2/2/2 47/85/43
f 56/58/47 87/106/70 20/87/18
f 25/25/21 23/23/21 52/53/37
f 43/44/39 13/13/12 64/72/12
f 4/4/3 6/6/5 14/89/13
f 56/58/47 75/88/58 47/85/43
f 39/39/35 4/4/3 76/90/59
f 77/91/60 80/94/63 78/92/61
f 80/94/63 7/7/6 9/9/8
f 66/74/53 67/75/14 81/95/64
f 81/95/64 80/94/63 77/91/60
f 67/75/14 15/15/14 83/97/66
f 83/97/66 7/7/6 80/94/63
f 15/15/14 14/14/13 84/98/67
f 83/97/66 84/98/67 85/99/68
f 70/100/55 25/25/21 49/50/37
f 66/102/53 55/57/46 45/46/41
f 68/101/9 49/50/37 50/51/37
f 69/104/54 1/1/1 25/25/21
f 55/57/46 93/113/76 86/105/69
f 6/6/5 94/114/77 88/107/71
f 46/47/42 1/1/1 69/104/54
f 5/5/4 27/56/24 89/109/72
f 65/103/52 45/46/41 46/47/42
f 87/106/70 86/105/69 91/111/74
f 55/57/46 66/102/53 92/112/75
f 5/5/4 90/110/73 94/114/77
f 17/17/10 11/11/10 50/51/37
f 8/8/7 85/99/68 95/115/78
f 8/8/7 96/142/79 97/117/80
f 9/9/8 97/117/80 98/118/81
f 85/99/68 84/98/67 99/119/82
f 94/114/77 90/110/73 100/120/83
f 89/109/72 103/143/86 100/120/83
f 89/109/72 27/56/24 102/122/85
f 31/31/27 33/33/29 104/124/87
f 36/36/32 34/34/30 106/126/89
f 34/34/30 31/31/27 105/128/88
f 33/33/29 29/29/25 108/129/91
f 86/105/69 113/135/96 109/130/92
f 92/112/75 66/102/53 110/131/93
f 93/113/76 92/112/75 111/133/94
f 93/113/76 112/134/95 113/135/96
